<svg width="86" height="86" viewBox="0 0 86 86" fill="none" xmlns="http://www.w3.org/2000/svg">
<g clip-path="url(#clip0_34_46)">
<path d="M41.5218 13.0989C41.4409 13.101 41.3611 13.1191 41.2872 13.152C41.2132 13.1849 41.1465 13.2321 41.0907 13.2908C41.035 13.3495 40.9914 13.4187 40.9624 13.4942C40.9334 13.5698 40.9195 13.6504 40.9216 13.7313L41.0726 19.3957C41.0876 19.9585 41.7858 20.2027 42.1517 19.7868C42.4503 19.4474 42.2473 19.4516 42.1542 13.6991C42.1521 13.6181 42.1341 13.5384 42.1011 13.4644C42.0682 13.3905 42.021 13.3237 41.9623 13.268C41.9036 13.2123 41.8345 13.1687 41.7589 13.1396C41.6833 13.1106 41.6027 13.0968 41.5218 13.0989ZM49.0706 12.9451C48.9957 12.9142 48.9154 12.8983 48.8344 12.8985C48.7533 12.8987 48.6731 12.9149 48.5984 12.9462C48.5237 12.9775 48.4558 13.0233 48.3988 13.0809C48.3419 13.1385 48.2968 13.2068 48.2663 13.2819L46.0982 18.581C45.7935 19.3255 46.9271 19.8138 47.2392 19.0473L49.4074 13.7493C49.4381 13.6744 49.4537 13.5942 49.4534 13.5132C49.4531 13.4322 49.4369 13.3521 49.4056 13.2774C49.3743 13.2028 49.3286 13.135 49.2711 13.0779C49.2137 13.0209 49.1455 12.9758 49.0706 12.9451ZM42.3657 22.1666C28.1868 22.1878 16.0507 34.869 17.9051 48.7459C19.2227 58.6103 27.2014 67.0987 37.1904 68.9482C48.817 71.1 60.1344 63.8914 62.6189 52.7775C65.8868 44.1229 63.9214 34.7 58.5129 28.8822C54.5942 24.6684 48.5586 22.1578 42.3657 22.1666ZM57.6097 29.7209C65.8087 38.54 64.5683 54.4278 54.1456 62.2298C48.1725 66.7047 39.7885 67.7582 32.7856 64.9111C25.6746 62.0202 20.262 55.1183 19.3162 47.7343C17.643 34.6693 29.5316 23.4179 42.3671 23.3994C48.2228 23.3906 53.9211 25.7545 57.6097 29.7209ZM34.8745 16.8658L36.4579 20.6803C36.5206 20.8313 36.6408 20.9512 36.7919 21.0136C36.943 21.0761 37.1127 21.0759 37.2637 21.0132C37.4147 20.9505 37.5345 20.8303 37.597 20.6792C37.6594 20.5281 37.6592 20.3584 37.5965 20.2074L36.013 16.3929C35.9503 16.2419 35.8302 16.122 35.6791 16.0596C35.528 15.9972 35.3583 15.9973 35.2073 16.06C35.0563 16.1227 34.9364 16.2429 34.874 16.394C34.8116 16.5451 34.8118 16.7148 34.8745 16.8658Z" fill="#58214B"/>
<path d="M45.8747 33.7695L40.424 39.9652C38.5016 37.7528 36.3763 35.9006 34.0786 34.4856C32.6507 33.2666 30.4169 33.3245 29.0797 34.8444C28.4548 35.5561 28.1378 36.4866 28.1982 37.4318C28.2587 38.377 28.6917 39.2595 29.4022 39.8858L35.6547 45.3864L30.1535 51.6395C29.5285 52.3511 29.2115 53.2817 29.272 54.2268C29.3324 55.172 29.7654 56.0546 30.476 56.6808C31.1817 57.3004 32.1028 57.6175 33.0404 57.5636C33.978 57.5097 34.8568 57.0892 35.4869 56.3929C37.5865 54.6023 39.7056 52.5607 41.1233 50.1964L47.2795 55.6123C48.7587 56.9137 51.0195 56.769 52.3203 55.2905C53.6211 53.8119 53.4764 51.5499 52.0432 50.2934C50.0334 48.1181 47.9891 46.3032 45.8256 44.7381C47.6846 42.9362 49.6053 40.5514 51.2385 38.4884C52.5779 36.966 52.3576 34.7152 50.916 33.447C50.2044 32.8221 49.2738 32.5051 48.3287 32.5655C47.3835 32.626 46.5009 33.059 45.8747 33.7695ZM50.2923 37.6986C45.8551 43.3048 44.8831 43.8596 44.4075 44.4002C44.3928 44.4169 44.3731 44.4269 44.3604 44.4463C44.3507 44.4597 44.35 44.4755 44.3416 44.49C43.7205 45.5419 45.71 45.2603 51.1835 51.1748C52.1523 52.0271 52.2464 53.5079 51.3946 54.4761C50.5428 55.4444 49.0621 55.5397 48.0933 54.6873C40.5676 48.083 41.338 48.6918 41.0832 48.6405C39.908 48.4047 41.0443 50.0448 34.6547 55.4823C34.6323 55.5014 34.6112 55.522 34.5916 55.544C33.7393 56.5128 32.2585 56.607 31.2903 55.7552C30.3221 54.9034 30.2273 53.422 31.0791 52.4538L36.9875 45.7379C37.0955 45.6152 37.1503 45.4546 37.1398 45.2914C37.1294 45.1282 37.0546 44.9759 36.9318 44.8679L30.2166 38.9601C28.646 37.5784 29.5656 34.984 31.6124 34.8711C32.6372 34.805 33.2038 35.3953 33.3917 35.5103C37.3449 37.9328 39.6943 41.0671 40.022 41.3554C40.0417 41.3728 40.0666 41.3793 40.0873 41.3931C40.3613 41.5795 40.7118 41.5046 40.8915 41.3004L46.8003 34.5839C47.2105 34.1186 47.7884 33.8351 48.4073 33.7956C49.0263 33.756 49.6356 33.9635 50.1017 34.3727C50.3343 34.5774 50.524 34.8264 50.6596 35.105C50.7953 35.3836 50.8743 35.6864 50.892 35.9958C50.9098 36.3052 50.8659 36.6151 50.7629 36.9074C50.66 37.1997 50.5 37.4686 50.2923 37.6986Z" fill="#58214B"/>
</g>
<defs>
<clipPath id="clip0_34_46">
<rect width="60" height="60" fill="white" transform="translate(0.660156 45.7084) rotate(-48.6601)"/>
</clipPath>
</defs>
</svg>
