<svg width="60" height="60" viewBox="0 0 60 60" fill="none" xmlns="http://www.w3.org/2000/svg">
<path d="M51.4734 9.13969C51.4184 9.08032 51.3522 9.03238 51.2786 8.99859C51.205 8.96481 51.1255 8.94585 51.0446 8.9428C50.9637 8.93974 50.883 8.95266 50.8071 8.9808C50.7312 9.00894 50.6616 9.05176 50.6022 9.10682L46.4491 12.9616C46.0364 13.3446 46.3143 14.0301 46.8682 14.0301C47.3203 14.0301 47.183 13.8805 51.4406 10.0109C51.4999 9.95588 51.5479 9.88968 51.5817 9.81611C51.6154 9.74253 51.6344 9.66302 51.6375 9.58212C51.6405 9.50122 51.6276 9.42051 51.5995 9.34459C51.5713 9.26868 51.5285 9.19906 51.4734 9.13969ZM56.5751 14.7057C56.5488 14.6291 56.5077 14.5583 56.454 14.4976C56.4003 14.4369 56.3352 14.3874 56.2623 14.352C56.1895 14.3165 56.1103 14.2959 56.0294 14.2911C55.9485 14.2864 55.8675 14.2977 55.791 14.3244L50.3803 16.1967C49.62 16.4597 50.0022 17.6334 50.7838 17.3613L56.1937 15.4898C56.2702 15.4634 56.3408 15.4221 56.4014 15.3684C56.462 15.3147 56.5114 15.2496 56.5468 15.1768C56.5822 15.104 56.603 15.0249 56.6078 14.9441C56.6127 14.8632 56.6015 14.7822 56.5751 14.7057ZM45.2227 15.7627C35.8414 5.1312 18.3041 4.39559 9.11015 14.9539C2.57426 22.4589 1.47124 34.0561 6.68056 42.7775C12.7447 52.9282 25.6323 56.6638 35.6178 51.1882C44.2743 47.9252 50.0507 40.2254 50.8463 32.3219C51.4216 26.5964 49.32 20.4065 45.2227 15.7627ZM49.62 32.1978C48.4143 44.1789 35.6663 53.7419 22.9241 51.0698C15.6189 49.5411 9.29015 43.9422 6.8022 36.8038C4.27563 29.5553 5.88248 20.9326 10.8017 15.3452C19.5058 5.45915 35.806 6.95339 44.2981 16.5781C48.1726 20.9687 50.1617 26.8085 49.62 32.1978ZM44.2545 6.63695L42.4364 10.3454C42.3645 10.4923 42.3538 10.6616 42.4068 10.8163C42.4597 10.971 42.572 11.0983 42.7188 11.1702C42.8656 11.2422 43.035 11.2528 43.1896 11.1999C43.3443 11.147 43.4716 11.0347 43.5436 10.8879L45.3617 7.17942C45.4336 7.03261 45.4443 6.86323 45.3913 6.70855C45.3384 6.55387 45.2261 6.42656 45.0793 6.35463C44.9325 6.28269 44.7631 6.27202 44.6085 6.32497C44.4538 6.37792 44.3265 6.49014 44.2545 6.63695Z" fill="#58214B"/>
<path d="M38.8291 26.0613H30.577C30.9682 23.1567 30.9551 20.3375 30.4997 17.6778C30.4718 15.8005 28.9529 14.1616 26.9285 14.1616C25.9814 14.1625 25.0733 14.5391 24.4036 15.2088C23.7339 15.8785 23.3573 16.7866 23.3564 17.7337V26.0613H15.028C14.0809 26.0622 13.1728 26.4388 12.5031 27.1085C11.8334 27.7782 11.4568 28.6863 11.4559 29.6334C11.4569 30.5725 11.8272 31.4736 12.487 32.1419C13.1467 32.8103 14.0429 33.1923 14.9819 33.2055C17.7132 33.5992 20.6458 33.8416 23.3573 33.3444V41.5438C23.3573 43.5139 24.9592 45.1159 26.9285 45.1159C28.8978 45.1159 30.5006 43.5131 30.4973 41.6071C30.803 38.6613 30.8154 35.9276 30.5614 33.2696C33.1422 33.475 36.2014 33.3419 38.8291 33.2055C40.8567 33.2055 42.4011 31.5534 42.4011 29.6334C42.4002 28.6863 42.0236 27.7782 41.3539 27.1085C40.6842 26.4388 39.7762 26.0622 38.8291 26.0613ZM38.797 31.9734C31.657 32.3449 30.5984 31.9816 29.8784 31.9816C29.8562 31.9816 29.8356 31.9734 29.8126 31.9767C29.7962 31.9783 29.7838 31.9882 29.7674 31.9915C28.5674 32.22 30.0929 33.5276 29.2677 41.5438C29.2677 42.8342 28.2181 43.883 26.9285 43.883C25.6389 43.883 24.5893 42.8342 24.5893 41.5438C24.577 31.5312 24.6288 32.5118 24.4989 32.2866C23.8997 31.2485 23.4189 33.1849 15.1159 31.9792C15.0868 31.975 15.0574 31.9728 15.028 31.9726C13.7375 31.9726 12.6888 30.923 12.6888 29.6334C12.6888 28.3438 13.7384 27.2942 15.028 27.2942H23.9729C24.1364 27.2942 24.2932 27.2293 24.4088 27.1137C24.5244 26.9981 24.5893 26.8413 24.5893 26.6778V17.7337C24.5893 15.6419 27.1447 14.6186 28.5814 16.0808C29.308 16.8066 29.2389 17.6219 29.2767 17.8389C30.0691 22.4071 29.2677 26.2413 29.2677 26.6778C29.2677 26.7041 29.2792 26.7271 29.2825 26.7518C29.3236 27.0805 29.6112 27.2942 29.8833 27.2942H38.8291C39.4492 27.2949 40.0438 27.5415 40.4824 27.9801C40.9209 28.4186 41.1676 29.0132 41.1682 29.6334C41.1681 29.9433 41.1065 30.2501 40.9869 30.536C40.8674 30.8219 40.6922 31.0812 40.4716 31.2989C40.251 31.5166 39.9894 31.6883 39.7019 31.8041C39.4145 31.9199 39.1069 31.9774 38.797 31.9734Z" fill="#58214B"/>
</svg>
