<?xml version="1.0" standalone="no"?>
<!DOCTYPE svg PUBLIC "-//W3C//DTD SVG 20010904//EN"
 "http://www.w3.org/TR/2001/REC-SVG-20010904/DTD/svg10.dtd">
<svg version="1.0" xmlns="http://www.w3.org/2000/svg"
 width="4096.000000pt" height="4096.000000pt" viewBox="0 0 4096.000000 4096.000000"
 preserveAspectRatio="xMidYMid meet">

<g transform="translate(0.000000,4096.000000) scale(0.100000,-0.100000)"
fill="#58214b" stroke="none">
<path d="M0 20480 l0 -20480 20480 0 20480 0 0 20480 0 20480 -20480 0 -20480
0 0 -20480z m12568 4943 l2 -6513 33 0 c17 0 3083 0 6812 0 4607 -1 6855 2
7015 9 791 35 1208 70 1700 142 762 111 1127 216 1468 421 370 222 682 605
861 1057 46 113 105 303 116 369 6 40 8 42 43 42 l35 0 -6 -937 c-4 -516 -7
-991 -7 -1055 l0 -118 -10110 0 -10110 0 0 30 0 30 585 0 585 0 0 6485 0 6485
-582 2 -583 3 -3 33 -3 32 1073 -2 1073 -3 3 -6512z m7062 6494 c328 -50 617
-140 900 -280 556 -276 978 -690 1289 -1268 54 -100 163 -373 201 -504 183
-627 148 -1309 -97 -1910 -68 -167 -168 -355 -269 -507 l-92 -138 136 -112
c237 -196 466 -439 649 -688 402 -549 644 -1170 729 -1870 25 -199 25 -649 1
-842 -46 -373 -129 -700 -257 -1023 -175 -441 -459 -885 -779 -1218 l-76 -78
74 -67 c330 -298 774 -576 1161 -727 372 -146 825 -256 1230 -299 678 -73
1332 -36 1800 99 360 105 596 219 865 419 145 108 379 339 489 484 246 324
406 693 478 1097 29 165 36 546 14 725 -50 394 -186 757 -409 1090 -131 196
-300 378 -519 563 -95 79 -321 269 -503 422 -533 447 -785 658 -1025 860 -125
105 -377 316 -561 470 -183 154 -419 352 -524 439 -104 88 -370 311 -590 496
-220 185 -508 426 -640 536 -264 221 -352 308 -442 441 -116 171 -184 320
-227 504 -50 209 -57 408 -22 606 36 201 141 469 280 717 502 894 1399 1478
2421 1577 174 17 572 6 745 -20 491 -76 986 -280 1380 -571 93 -69 156 -104
230 -128 149 -49 300 -52 449 -8 119 34 204 87 307 191 78 78 99 106 137 186
46 94 77 211 77 289 0 38 2 40 30 40 l30 0 0 -1540 0 -1540 -30 0 -30 0 0 83
c0 171 -38 469 -81 642 -120 476 -354 927 -665 1280 -634 720 -1554 1101
-2497 1036 -206 -15 -370 -41 -542 -86 -509 -133 -945 -370 -1325 -719 -99
-91 -157 -173 -229 -320 -94 -191 -128 -326 -138 -542 -10 -240 23 -412 116
-607 88 -182 210 -344 340 -452 36 -29 109 -89 162 -132 91 -74 404 -335 734
-613 270 -227 455 -382 810 -679 193 -161 454 -380 580 -486 127 -106 374
-314 551 -461 449 -376 734 -615 839 -704 50 -42 185 -155 300 -252 279 -232
410 -371 581 -617 221 -317 400 -732 473 -1096 75 -377 86 -744 31 -1112 -37
-249 -86 -430 -185 -688 -239 -619 -711 -1172 -1297 -1521 -407 -241 -869
-398 -1313 -443 -382 -40 -470 -45 -780 -44 -635 1 -1080 66 -1620 234 -541
170 -1047 456 -1465 830 l-96 86 -64 -59 c-643 -586 -1332 -907 -2200 -1025
-114 -15 -325 -17 -2397 -20 l-2273 -3 0 30 0 30 175 0 175 0 0 5740 0 5740
-175 0 c-147 0 -177 2 -181 15 -4 8 -4 22 0 30 5 14 248 15 2268 12 2091 -3
2272 -4 2378 -20z m-10005 -17232 c0 -18 -9 -21 -79 -27 -103 -10 -162 -30
-209 -73 -79 -72 -72 109 -75 -1960 -2 -1302 0 -1875 8 -1935 41 -316 181
-481 470 -554 161 -41 287 -48 775 -44 449 4 450 4 547 30 353 96 490 319 533
871 7 82 9 88 29 85 l21 -3 0 -505 c0 -278 -2 -535 -3 -572 l-4 -68 -1644 0
c-1637 0 -1644 0 -1644 20 0 11 3 20 8 20 50 0 184 25 218 42 53 25 80 59 108
141 l21 62 3 2010 c2 1268 -1 2052 -7 2125 -11 130 -31 197 -68 234 -36 36
-119 64 -213 72 -76 7 -80 8 -80 31 l0 23 643 -2 c634 -3 642 -3 642 -23z
m5515 -305 l0 -330 -25 0 c-21 0 -26 8 -45 73 -67 231 -115 338 -168 374 -71
47 -90 48 -1012 48 l-865 0 -3 -1073 -2 -1073 822 4 c643 3 832 6 866 17 54
16 99 60 108 105 5 28 11 35 30 35 l24 0 0 -225 0 -225 -23 0 c-19 0 -26 8
-35 38 -13 44 -52 84 -102 103 -28 11 -189 14 -862 17 l-828 3 0 -778 c0 -916
8 -1054 71 -1199 23 -55 82 -120 132 -145 98 -50 125 -52 862 -56 903 -6 974
0 1102 88 70 49 107 124 147 304 20 86 26 100 45 103 l21 3 0 -330 0 -331
-1635 0 c-1623 0 -1635 0 -1635 20 0 21 -1 21 114 40 116 19 174 60 203 144
17 48 18 165 18 2151 0 2244 1 2182 -48 2270 -29 51 -95 85 -179 91 -99 8
-108 11 -108 39 l0 25 1505 0 1505 0 0 -330z m1470 306 c0 -21 -6 -24 -47 -29
-67 -7 -93 -39 -93 -114 0 -63 -91 168 1065 -2703 114 -283 254 -630 310 -771
57 -141 108 -266 115 -278 10 -20 81 151 646 1561 350 870 648 1617 664 1658
15 41 65 165 110 275 84 206 103 282 80 324 -15 29 -68 51 -120 51 -36 0 -40
2 -40 25 l0 25 360 0 360 0 0 -25 c0 -21 -5 -25 -30 -25 -41 0 -130 -20 -162
-36 -47 -24 -98 -86 -165 -199 -50 -84 -109 -221 -263 -605 -108 -272 -485
-1210 -835 -2085 -351 -874 -664 -1655 -695 -1735 l-58 -145 -33 0 -33 0 -96
240 c-85 210 -280 695 -555 1375 -46 113 -135 333 -198 490 -63 157 -158 391
-210 520 -118 292 -271 671 -434 1075 -214 531 -263 647 -320 760 -61 121
-116 206 -159 247 -41 38 -152 88 -213 95 -45 5 -51 8 -51 29 l0 24 550 0 550
0 0 -24z m4950 -1 c0 -24 -3 -25 -57 -25 -150 0 -280 -73 -300 -168 -4 -20 -8
-998 -8 -2172 0 -1666 3 -2144 12 -2176 17 -55 74 -118 125 -139 24 -10 84
-21 133 -24 84 -6 90 -8 93 -28 l3 -23 -640 0 c-626 0 -641 0 -641 19 0 16 9
21 58 26 157 16 213 42 249 115 49 99 48 63 48 2215 0 2051 0 2073 -35 2196
-29 101 -102 150 -237 157 -79 4 -83 6 -83 28 l0 24 640 0 640 0 0 -25z m2449
15 c241 -16 349 -42 537 -130 341 -160 517 -407 555 -783 50 -495 -205 -971
-694 -1297 -64 -43 -122 -80 -128 -82 -7 -2 18 -49 53 -103 36 -55 122 -188
191 -295 194 -302 272 -420 401 -604 524 -753 796 -1067 1037 -1200 93 -51
259 -103 371 -117 171 -21 348 19 551 124 53 28 99 48 101 46 2 -2 7 -18 10
-34 6 -30 3 -33 -88 -93 -220 -146 -436 -215 -757 -243 -319 -27 -580 32 -802
183 -251 170 -656 702 -1352 1777 l-249 384 -111 -7 c-60 -3 -242 -6 -402 -6
l-293 0 0 -972 c0 -615 4 -997 10 -1038 6 -36 23 -90 38 -120 35 -71 87 -98
205 -108 75 -6 82 -9 85 -29 l3 -23 -620 0 c-612 0 -621 0 -621 20 0 22 11 25
105 35 84 8 155 45 183 94 59 104 56 -3 60 2136 2 1289 0 2003 -7 2086 -12
147 -39 244 -78 281 -42 40 -115 69 -193 75 -65 5 -70 8 -70 29 l0 24 903 0
c512 0 973 -5 1066 -10z m4541 -14 c0 -22 -4 -23 -77 -29 -83 -5 -174 -34
-217 -68 -49 -38 -58 -71 -67 -243 -10 -205 -11 -3818 0 -4031 9 -176 18 -211
72 -264 47 -48 91 -63 197 -69 89 -5 92 -6 92 -28 l0 -24 -640 0 c-633 0 -640
0 -640 20 0 11 3 20 8 20 58 1 193 25 227 41 53 25 78 62 102 150 16 60 18
197 21 2079 3 2055 2 2133 -34 2258 -33 111 -113 162 -256 162 -66 0 -68 1
-68 25 l0 25 640 0 640 0 0 -24z m1465 -288 c160 -171 375 -401 479 -512 105
-110 359 -381 565 -601 206 -220 511 -544 676 -720 320 -340 1107 -1180 1390
-1483 l170 -182 3 1732 c2 1213 -1 1752 -8 1797 -26 149 -97 210 -272 229 -54
6 -63 10 -63 27 0 20 8 20 463 23 l462 2 0 -24 c0 -21 -5 -24 -66 -30 -154
-16 -238 -72 -277 -186 l-22 -65 -5 -2269 -5 -2268 -85 93 c-47 51 -168 181
-270 289 -102 109 -524 559 -939 1001 -415 442 -789 840 -831 884 -94 98 -457
484 -850 905 -162 173 -404 430 -537 571 -134 141 -252 268 -264 283 -11 14
-25 26 -30 26 -11 0 -9 -3160 2 -3530 7 -233 16 -280 66 -332 31 -33 68 -46
183 -68 75 -13 85 -18 88 -38 l3 -22 -460 0 -461 0 0 24 c0 22 3 23 94 28 204
11 248 71 266 363 13 199 13 3292 0 3506 -15 256 -68 484 -144 613 -71 122
-234 195 -433 196 -82 0 -83 0 -83 25 l0 25 453 -1 452 0 290 -311z"/>
<path d="M16370 31313 c0 -452 3 -596 16 -703 71 -611 345 -1190 772 -1632
338 -350 727 -596 1164 -739 323 -105 516 -135 962 -149 397 -12 584 -37 906
-121 438 -114 825 -288 1188 -536 68 -46 128 -81 133 -78 5 3 42 56 83 118
237 357 382 735 447 1167 27 176 32 558 11 730 -65 516 -248 972 -554 1379
-113 151 -305 353 -448 473 -332 278 -775 495 -1210 592 -280 62 -197 59
-1907 63 l-1563 4 0 -568z"/>
<path d="M16371 25357 l-1 -4958 1563 4 c1548 3 1563 3 1695 24 787 129 1424
512 1893 1139 47 63 93 127 102 143 l17 28 -61 69 c-90 102 -225 282 -322 429
-550 838 -758 1891 -586 2970 53 332 112 571 218 893 99 297 230 584 394 859
37 61 67 116 67 121 0 16 -252 255 -355 337 -343 274 -736 460 -1176 559 -178
40 -332 56 -629 66 -382 13 -570 43 -878 142 -240 76 -483 194 -699 337 -601
397 -1021 983 -1213 1691 l-28 105 -1 -4958z"/>
<path d="M21383 27018 c-6 -7 -40 -64 -77 -126 -333 -566 -540 -1220 -623
-1972 -24 -218 -23 -689 1 -895 81 -692 283 -1265 629 -1785 108 -161 215
-302 315 -414 l35 -39 18 24 c11 13 53 92 94 174 154 308 241 603 280 946 14
115 15 306 12 1344 -3 1313 0 1234 -59 1519 -63 309 -222 682 -411 966 -48 72
-196 270 -202 270 -1 0 -7 -6 -12 -12z"/>
<path d="M22940 13459 l0 -1121 368 5 c383 6 453 12 607 58 234 70 405 191
523 372 212 325 214 798 4 1207 -161 313 -353 474 -656 550 -153 38 -285 50
-573 50 l-273 0 0 -1121z"/>
</g>
</svg>
