<svg width="45" height="38" viewBox="0 0 45 38" fill="none" xmlns="http://www.w3.org/2000/svg">
<g id="Number1">
<g id="Group">
<path id="Vector" d="M35.0156 3.72656C35.7188 4.92188 36.4922 5.90625 37.4766 6.53906C38.4609 7.17187 39.5156 7.59375 40.5703 7.3125C39.7969 4.14844 36.7734 2.60156 35.0156 3.72656ZM41.8359 0C42.8203 1.75781 43.0313 3.51562 42.75 4.85156C42.4688 6.1875 41.625 7.10156 40.5703 7.3125C39.8672 4.35938 39.9375 1.125 41.8359 0ZM36.8438 8.57812C37.125 9.84375 37.6875 10.9687 38.3906 11.8125C39.0938 12.6562 40.0781 13.2891 41.1328 13.3594C41.2734 10.1953 38.8828 8.01562 36.8438 8.57812ZM44.4375 6.96094C44.8594 8.78906 44.5781 10.4766 43.875 11.6719C43.1719 12.8672 42.1875 13.4297 41.1328 13.4297C41.2734 10.4062 42.3281 7.52344 44.4375 6.96094ZM37.2656 13.6406C37.1953 14.9062 37.4063 16.1016 37.8984 17.0859C38.3906 18.0703 39.0938 18.9844 40.1484 19.2656C41.0625 16.2422 39.375 13.6406 37.2656 13.6406Z" fill="#4CB274"/>
<path id="Vector_2" d="M45 14.0625C44.8594 15.8906 44.1562 17.4375 43.2422 18.3516C42.2578 19.2656 41.1328 19.6172 40.1484 19.2656C40.9922 16.4531 42.8203 14.0625 45 14.0625ZM36.2812 18.4922C35.8594 19.6875 35.7891 20.8828 36 22.0078C36.2109 23.1328 36.7031 24.1172 37.6172 24.75C39.2344 22.0078 38.3203 19.0547 36.2812 18.4922Z" fill="#4CB274"/>
<path id="Vector_3" d="M43.6641 20.9531C43.1016 22.6406 41.9766 23.9766 40.8516 24.6094C39.6563 25.2422 38.5313 25.2422 37.6172 24.6797C39.1641 22.2188 41.5547 20.3203 43.6641 20.9531ZM34.1016 22.9219C33.3984 23.9766 32.9766 25.1016 32.9063 26.2266C32.8359 27.3516 32.9766 28.4766 33.6797 29.25C36.0703 27.1406 35.9297 23.9766 34.1016 22.9219Z" fill="#4CB274"/>
<path id="Vector_4" d="M40.5703 27.2109C39.5859 28.6875 38.1797 29.6719 36.8438 30.0234C35.5781 30.375 34.3828 30.0234 33.6797 29.25C35.9297 27.2812 38.6719 26.0859 40.5703 27.2109ZM30.7969 26.5781C29.8125 27.4219 29.1094 28.4062 28.6875 29.4609C28.2656 30.5156 28.125 31.6406 28.6172 32.625C31.5703 31.2187 32.2734 28.125 30.7969 26.5781ZM35.8594 32.4844C34.4531 33.6797 32.8359 34.2422 31.5 34.2422C30.1641 34.2422 29.1094 33.6094 28.6172 32.6953C31.4297 31.3594 34.3828 30.9375 35.8594 32.4844ZM26.5781 29.3203C25.3828 29.8828 24.3984 30.6562 23.625 31.5703C22.8516 32.4844 22.3594 33.5391 22.5703 34.5937C25.9453 34.0312 27.5625 31.2187 26.5781 29.3203Z" fill="#4CB274"/>
<path id="Vector_5" d="M29.8125 36.4219C28.125 37.1954 26.2969 37.336 24.8906 36.9141C23.4844 36.4922 22.6406 35.6485 22.5 34.5938C25.8047 34.1016 28.8281 34.4532 29.8125 36.4219ZM9.98437 3.72661C9.28125 4.92193 8.50781 5.9063 7.52344 6.53911C6.53906 7.17193 5.48438 7.5938 4.42969 7.31255C5.20312 4.14849 8.22656 2.60161 9.98437 3.72661Z" fill="#4CB274"/>
<path id="Vector_6" d="M3.16406 0C2.17968 1.75781 1.96875 3.51562 2.25 4.85156C2.53125 6.1875 3.375 7.10156 4.42968 7.3125C5.13281 4.35938 5.0625 1.125 3.16406 0ZM8.15625 8.57812C7.875 9.84375 7.3125 10.9687 6.60937 11.8125C5.90625 12.6562 4.92187 13.2891 3.86718 13.3594C3.72656 10.1953 6.11718 8.01562 8.15625 8.57812ZM0.562497 6.96094C0.140622 8.78906 0.421872 10.4766 1.125 11.6719C1.82812 12.8672 2.8125 13.4297 3.86718 13.4297C3.72656 10.4062 2.67187 7.52344 0.562497 6.96094ZM7.73437 13.6406C7.80468 14.9062 7.59375 16.1016 7.10156 17.0859C6.67969 18.0703 5.90625 18.9844 4.92187 19.2656C3.9375 16.2422 5.625 13.6406 7.73437 13.6406Z" fill="#4CB274"/>
<path id="Vector_7" d="M0 14.0625C0.140625 15.8906 0.84375 17.4375 1.75781 18.3516C2.74219 19.2656 3.86719 19.6172 4.92188 19.2656C4.00781 16.4531 2.17969 14.0625 0 14.0625ZM8.71875 18.4922C9.14062 19.6875 9.21094 20.8828 9 22.0078C8.78906 23.1328 8.29688 24.1172 7.38281 24.75C5.76562 22.0078 6.67969 19.0547 8.71875 18.4922Z" fill="#4CB274"/>
<path id="Vector_8" d="M1.33594 20.9531C1.89844 22.6406 3.02344 23.9766 4.14844 24.6094C5.34375 25.2422 6.46875 25.2422 7.38281 24.6797C5.83594 22.2188 3.44531 20.3203 1.33594 20.9531ZM10.8984 22.9219C11.6016 23.9766 12.0234 25.1016 12.0938 26.2266C12.1641 27.3516 12.0234 28.4766 11.3203 29.25C8.92969 27.1406 9.07031 23.9766 10.8984 22.9219Z" fill="#4CB274"/>
<path id="Vector_9" d="M4.42969 27.2109C5.41406 28.6875 6.82031 29.6719 8.15625 30.0234C9.42188 30.375 10.6172 30.0234 11.3203 29.25C9.07031 27.2812 6.32812 26.0859 4.42969 27.2109ZM14.2031 26.5781C15.1875 27.4219 15.8906 28.4062 16.3125 29.4609C16.7344 30.5156 16.875 31.6406 16.3828 32.625C13.4297 31.2187 12.7266 28.125 14.2031 26.5781ZM9.14062 32.4844C10.5469 33.6797 12.1641 34.2422 13.5 34.2422C14.8359 34.2422 15.8906 33.6094 16.3828 32.6953C13.5703 31.3594 10.6172 30.9375 9.14062 32.4844ZM18.4219 29.3203C19.6172 29.8828 20.6016 30.6562 21.375 31.5703C22.1484 32.4844 22.6406 33.5391 22.4297 34.5937C19.0547 34.0312 17.4375 31.2187 18.4219 29.3203Z" fill="#4CB274"/>
<path id="Vector_10" d="M15.1875 36.4219C16.875 37.1954 18.7031 37.336 20.1094 36.9141C21.5156 36.4922 22.3594 35.6485 22.5 34.5938C19.1953 34.1016 16.1719 34.4532 15.1875 36.4219Z" fill="#4CB274"/>
</g>
<path id="Vector_11" d="M22.5 27C29.2957 27 34.8047 21.491 34.8047 14.6953C34.8047 7.89962 29.2957 2.39062 22.5 2.39062C15.7043 2.39062 10.1953 7.89962 10.1953 14.6953C10.1953 21.491 15.7043 27 22.5 27Z" fill="#FFDB6F"/>
<path id="Vector_12" d="M22.5 23.9062C27.5871 23.9062 31.7109 19.7824 31.7109 14.6953C31.7109 9.60825 27.5871 5.48438 22.5 5.48438C17.4129 5.48438 13.2891 9.60825 13.2891 14.6953C13.2891 19.7824 17.4129 23.9062 22.5 23.9062Z" fill="#FFCB5A"/>
<path id="Vector_13" d="M20.4609 10.125H24.1875V19.2656H22.2188V11.8828H20.4609V10.125Z" fill="#F19F35"/>
</g>
</svg>
