<svg width="30" height="30" viewBox="0 0 30 30" fill="none" xmlns="http://www.w3.org/2000/svg">
<g clip-path="url(#clip0_53_51)">
<path d="M2.8125 27.6562C2.7198 27.6562 2.6292 27.6287 2.55213 27.5772C2.47506 27.5257 2.415 27.4525 2.37953 27.3669C2.34406 27.2812 2.33477 27.187 2.35285 27.0961C2.37093 27.0052 2.41556 26.9216 2.48109 26.8561L26.8561 2.48109C26.8993 2.43632 26.9511 2.40061 27.0082 2.37605C27.0654 2.35148 27.1269 2.33855 27.1892 2.33801C27.2514 2.33747 27.3132 2.34933 27.3708 2.3729C27.4284 2.39647 27.4807 2.43127 27.5247 2.47528C27.5687 2.5193 27.6035 2.57163 27.6271 2.62924C27.6507 2.68685 27.6625 2.74857 27.662 2.81081C27.6614 2.87305 27.6485 2.93456 27.624 2.99175C27.5994 3.04894 27.5637 3.10067 27.5189 3.14391L3.14391 27.5189C3.05602 27.6068 2.93681 27.6562 2.8125 27.6562ZM8.4375 19.8492C8.37556 19.8489 8.3143 19.8363 8.25725 19.8122C8.20021 19.788 8.14851 19.7528 8.10516 19.7086C7.30973 18.9027 6.6812 17.9477 6.2556 16.8984C5.83 15.8491 5.61571 14.7261 5.625 13.5937C5.625 8.94141 9.19969 5.15625 13.5938 5.15625C14.7676 5.16342 15.9247 5.436 16.9783 5.95357C18.032 6.47114 18.9549 7.2203 19.6781 8.145C19.7519 8.24242 19.7848 8.36483 19.7696 8.48612C19.7545 8.60741 19.6926 8.71799 19.5971 8.79428C19.5016 8.87058 19.3801 8.90656 19.2584 8.89455C19.1368 8.88254 19.0247 8.8235 18.9459 8.73C18.3103 7.91551 17.4987 7.2553 16.5718 6.79878C15.645 6.34226 14.6269 6.10124 13.5938 6.09375C9.71672 6.09375 6.5625 9.45844 6.5625 13.5937C6.5532 14.6037 6.7434 15.6056 7.12219 16.5419C7.50098 17.4783 8.06091 18.3306 8.76984 19.05C8.83432 19.1158 8.87799 19.1991 8.8954 19.2895C8.91281 19.38 8.90318 19.4736 8.86773 19.5586C8.83227 19.6436 8.77256 19.7163 8.69604 19.7675C8.61953 19.8188 8.52961 19.8464 8.4375 19.8469V19.8492ZM6.09375 6.5625C5.96944 6.56247 5.85023 6.51307 5.76234 6.42516L3.88734 4.55016C3.80196 4.46175 3.75471 4.34334 3.75578 4.22044C3.75685 4.09753 3.80614 3.97996 3.89305 3.89305C3.97996 3.80614 4.09753 3.75685 4.22044 3.75578C4.34334 3.75471 4.46175 3.80196 4.55016 3.88734L6.42516 5.76234C6.49069 5.8279 6.53532 5.91141 6.5534 6.00233C6.57148 6.09324 6.56219 6.18748 6.52672 6.27312C6.49125 6.35876 6.43119 6.43196 6.35412 6.48347C6.27705 6.53498 6.18645 6.56248 6.09375 6.5625ZM3.28125 14.0625H0.46875C0.34443 14.0625 0.225201 14.0131 0.137294 13.9252C0.049386 13.8373 0 13.7181 0 13.5937C0 13.4694 0.049386 13.3502 0.137294 13.2623C0.225201 13.1744 0.34443 13.125 0.46875 13.125H3.28125C3.40557 13.125 3.5248 13.1744 3.61271 13.2623C3.70061 13.3502 3.75 13.4694 3.75 13.5937C3.75 13.7181 3.70061 13.8373 3.61271 13.9252C3.5248 14.0131 3.40557 14.0625 3.28125 14.0625ZM4.21875 23.4375C4.12605 23.4375 4.03545 23.41 3.95838 23.3585C3.88131 23.307 3.82125 23.2338 3.78578 23.1481C3.75031 23.0625 3.74102 22.9682 3.7591 22.8773C3.77718 22.7864 3.82181 22.7029 3.88734 22.6373L5.76234 20.7623C5.85075 20.677 5.96916 20.6297 6.09206 20.6308C6.21497 20.6318 6.33254 20.6811 6.41945 20.7681C6.50636 20.855 6.55565 20.9725 6.55672 21.0954C6.55779 21.2183 6.51054 21.3367 6.42516 21.4252L4.55016 23.3002C4.46227 23.3881 4.34306 23.4375 4.21875 23.4375ZM21.0938 6.5625C21.0011 6.56248 20.9104 6.53498 20.8334 6.48347C20.7563 6.43196 20.6962 6.35876 20.6608 6.27312C20.6253 6.18748 20.616 6.09324 20.6341 6.00233C20.6522 5.91141 20.6968 5.8279 20.7623 5.76234L22.6373 3.88734C22.7258 3.80196 22.8442 3.75471 22.9671 3.75578C23.09 3.75685 23.2075 3.80614 23.2944 3.89305C23.3814 3.97996 23.4307 4.09753 23.4317 4.22044C23.4328 4.34334 23.3855 4.46175 23.3002 4.55016L21.4252 6.42516C21.3373 6.51307 21.2181 6.56247 21.0938 6.5625ZM13.5938 3.75C13.4694 3.75 13.3502 3.70061 13.2623 3.61271C13.1744 3.5248 13.125 3.40557 13.125 3.28125V0.46875C13.125 0.34443 13.1744 0.225201 13.2623 0.137294C13.3502 0.049386 13.4694 0 13.5938 0C13.7181 0 13.8373 0.049386 13.9252 0.137294C14.0131 0.225201 14.0625 0.34443 14.0625 0.46875V3.28125C14.0625 3.40557 14.0131 3.5248 13.9252 3.61271C13.8373 3.70061 13.7181 3.75 13.5938 3.75ZM22.0983 30C20.1957 30.0301 18.3462 29.3722 16.8901 28.1472C15.434 26.9223 14.4691 25.2128 14.1731 23.3332C13.877 21.4535 14.2696 19.5302 15.2786 17.9169C16.2877 16.3037 17.8453 15.1091 19.665 14.5528C19.7544 14.5248 19.8502 14.5241 19.9399 14.551C20.0297 14.5779 20.1093 14.6311 20.1686 14.7037C20.2278 14.7763 20.2639 14.865 20.2722 14.9584C20.2806 15.0517 20.2607 15.1454 20.2153 15.2273C19.7187 16.1231 19.4577 17.1304 19.4569 18.1547C19.4725 19.7837 20.1335 21.34 21.2949 22.4823C22.4563 23.6247 24.0233 24.2598 25.6523 24.2484C26.9389 24.2525 28.1951 23.8573 29.2477 23.1173C29.3241 23.0637 29.4149 23.0341 29.5083 23.0324C29.6017 23.0307 29.6935 23.057 29.7719 23.1078C29.8503 23.1586 29.9117 23.2317 29.9482 23.3177C29.9848 23.4037 29.9948 23.4986 29.977 23.5903C29.6084 25.4054 28.6216 27.0364 27.1848 28.2053C25.7481 29.3741 23.9504 30.0084 22.0983 30ZM18.9075 15.8634C17.7405 16.4333 16.757 17.3192 16.0686 18.4204C15.3803 19.5217 15.015 20.794 15.0141 22.0927C15.0451 23.7417 15.6489 25.3285 16.722 26.5809C17.7951 27.8334 19.2706 28.6734 20.8953 28.9569C22.5201 29.2403 24.1928 28.9496 25.6267 28.1346C27.0605 27.3195 28.166 26.0309 28.7536 24.4898C27.785 24.9513 26.7252 25.1895 25.6523 25.1869C23.7747 25.1981 21.9693 24.4642 20.6321 23.146C19.2949 21.8279 18.5351 20.0332 18.5194 18.1556C18.5198 17.3752 18.651 16.6005 18.9075 15.8634ZM25.3125 15.4687H23.4375C23.3132 15.4687 23.194 15.4194 23.106 15.3315C23.0181 15.2435 22.9688 15.1243 22.9688 15C22.9688 14.8757 23.0181 14.7564 23.106 14.6685C23.194 14.5806 23.3132 14.5312 23.4375 14.5312H25.3125C25.4368 14.5312 25.556 14.5806 25.644 14.6685C25.7319 14.7564 25.7812 14.8757 25.7812 15C25.7812 15.1243 25.7319 15.2435 25.644 15.3315C25.556 15.4194 25.4368 15.4687 25.3125 15.4687Z" fill="black"/>
<path d="M24.375 16.4062C24.2507 16.4062 24.1315 16.3569 24.0435 16.269C23.9556 16.181 23.9062 16.0618 23.9062 15.9375V14.0625C23.9062 13.9382 23.9556 13.819 24.0435 13.731C24.1315 13.6431 24.2507 13.5938 24.375 13.5938C24.4993 13.5938 24.6185 13.6431 24.7065 13.731C24.7944 13.819 24.8438 13.9382 24.8438 14.0625V15.9375C24.8438 16.0618 24.7944 16.181 24.7065 16.269C24.6185 16.3569 24.4993 16.4062 24.375 16.4062ZM28.5938 20.625H25.7812C25.6569 20.625 25.5377 20.5756 25.4498 20.4877C25.3619 20.3998 25.3125 20.2806 25.3125 20.1562C25.3125 20.0319 25.3619 19.9127 25.4498 19.8248C25.5377 19.7369 25.6569 19.6875 25.7812 19.6875H28.5938C28.7181 19.6875 28.8373 19.7369 28.9252 19.8248C29.0131 19.9127 29.0625 20.0319 29.0625 20.1562C29.0625 20.2806 29.0131 20.3998 28.9252 20.4877C28.8373 20.5756 28.7181 20.625 28.5938 20.625Z" fill="black"/>
<path d="M27.1875 22.0312C27.0632 22.0312 26.944 21.9819 26.856 21.894C26.7681 21.806 26.7188 21.6868 26.7188 21.5625V18.75C26.7188 18.6257 26.7681 18.5065 26.856 18.4185C26.944 18.3306 27.0632 18.2812 27.1875 18.2812C27.3118 18.2812 27.431 18.3306 27.519 18.4185C27.6069 18.5065 27.6562 18.6257 27.6562 18.75V21.5625C27.6562 21.6868 27.6069 21.806 27.519 21.894C27.431 21.9819 27.3118 22.0312 27.1875 22.0312Z" fill="black"/>
</g>
<defs>
<clipPath id="clip0_53_51">
<rect width="30" height="30" fill="white"/>
</clipPath>
</defs>
</svg>
