<svg width="100" height="100" viewBox="0 0 100 100" fill="none" xmlns="http://www.w3.org/2000/svg">
<g id="disposable 1" clip-path="url(#clip0_51_12)">
<g id="Group">
<path id="Vector" d="M73.8998 45.9827V45.9107H70.6724C67.3491 48.3927 65.3014 52.0655 64.0576 55.3185H67.3763C68.6088 52.0961 70.6319 48.4634 73.8998 45.9827ZM63.6086 90.4103L65.563 62.376C65.5819 62.2121 65.6791 61.4395 65.9181 60.2962H62.5994C62.3601 61.4395 62.2629 62.2117 62.2443 62.376L60.2899 90.4103C60.1946 91.6531 60.2444 93.2883 61.0164 94.1222C61.5848 94.7362 62.6309 95.0219 64.3085 95.0219H67.6272C65.9496 95.0219 64.9035 94.7359 64.335 94.1222C63.5634 93.2883 63.5133 91.6531 63.6086 90.4103ZM20.0671 54.2356H16.7484C14.4821 55.8113 12.5612 57.9031 11.0641 60.3437H14.3828C15.8799 57.9031 17.8007 55.8113 20.0671 54.2356ZM22.8488 23.266C22.8488 21.3939 24.3718 19.8709 26.2438 19.8709H32.8344C32.859 19.8709 32.8829 19.8743 32.9071 19.8746C32.8679 18.0364 31.3632 16.5522 29.5157 16.5522H22.9251C21.0531 16.5522 19.5301 18.0752 19.5301 19.9473V49.2572H22.8488V23.266Z" fill="white"/>
<path id="Vector_2" d="M78.8779 45.9106V55.3185H88.7062C87.459 52.0608 85.412 48.3841 82.1036 45.9106H78.8779Z" fill="#FFE09C"/>
<path id="Vector_3" d="M73.8563 11.1534C73.8563 9.57806 75.1377 8.29671 76.7134 8.29671H82.239V7.83475C82.239 6.25937 80.9577 4.97803 79.3826 4.97803H73.3947C71.819 4.97803 70.5377 6.2597 70.5377 7.83475V40.9323H73.8563V11.1534Z" fill="white"/>
<path id="Vector_4" d="M28.7093 60.3436H41.2081C39.7107 57.9031 37.7895 55.8113 35.5235 54.2356H28.7093V60.3436Z" fill="#FFE09C"/>
<path id="Vector_5" d="M90.5334 62.3784C90.5145 62.2191 90.415 61.4452 90.1717 60.2966H65.9181C65.6788 61.4399 65.5816 62.2122 65.563 62.3765L63.6086 90.4107C63.5134 91.6536 63.5631 93.2887 64.3351 94.1227C64.9036 94.7366 65.9496 95.0224 67.6272 95.0224H88.4682C90.1458 95.0224 91.1919 94.7366 91.7604 94.1227C92.5323 93.289 92.5824 91.6536 92.4881 90.4286L90.5334 62.3784Z" fill="#FFA5A5"/>
<path id="Vector_6" d="M67.3766 55.3185H73.8999V45.9827C70.6319 48.4634 68.6089 52.096 67.3766 55.3185Z" fill="#FFE09C"/>
<path id="Vector_7" d="M73.8564 11.1534V40.9323H82.2394V8.29663H76.7137C75.138 8.29663 73.8564 9.57831 73.8564 11.1534Z" fill="#FFA5A5"/>
<path id="Vector_8" d="M97.4529 90.0642C97.4529 90.0642 95.4916 61.926 95.4889 61.8988C95.4365 61.3911 94.2514 50.6677 87.1962 43.735C87.2091 43.6321 87.2174 43.5279 87.2174 43.4217V7.83476C87.2174 3.51482 83.7029 0 79.383 0H73.3951C69.0748 0 65.56 3.51482 65.56 7.83476V43.4217C65.56 43.5279 65.5689 43.6318 65.5819 43.7347C58.5257 50.6674 57.3409 61.3914 57.2885 61.8988C57.2858 61.9257 55.3258 90.0459 55.3258 90.0459C55.0782 93.2664 55.7639 95.7757 57.3645 97.504C59.6753 99.9997 63.1632 99.9997 64.3092 99.9997H88.4689C89.6148 99.9997 93.1028 99.9997 95.4136 97.504C97.0135 95.776 97.6991 93.2667 97.4529 90.0642ZM88.7062 55.3185H78.8779V45.9107H82.104C85.4124 48.3838 87.459 52.0609 88.7062 55.3185ZM70.5377 7.83476C70.5377 6.25938 71.819 4.97803 73.3947 4.97803H79.383C80.958 4.97803 82.2394 6.25971 82.2394 7.83476V40.9327H70.5377V7.83476ZM70.6728 45.9107H73.9002V55.3185H64.0583C65.3018 52.0656 67.3494 48.3928 70.6728 45.9107ZM91.7604 94.1219C91.1919 94.7359 90.1458 95.0216 88.4682 95.0216H64.3085C62.6309 95.0216 61.5849 94.7356 61.0164 94.1219C60.2444 93.288 60.1943 91.6528 60.2899 90.41L62.2443 62.3757C62.2632 62.2118 62.3604 61.4392 62.5994 60.2959H90.1717C90.4146 61.4445 90.5145 62.2187 90.5334 62.3777L92.4885 90.4276C92.5824 91.6532 92.5326 93.2883 91.7604 94.1219Z" fill="#DE4C90"/>
<path id="Vector_9" d="M26.2438 19.8708C24.3718 19.8708 22.8488 21.3938 22.8488 23.2659V49.2572H32.9111V19.9472C32.9111 19.9226 32.9078 19.8991 32.9074 19.8745C32.8832 19.8742 32.8593 19.8708 32.8347 19.8708H26.2438Z" fill="#FFA5A5"/>
<path id="Vector_10" d="M14.3828 60.3436H23.7313V54.2356H20.0671C17.8008 55.8113 15.8799 57.9031 14.3828 60.3436Z" fill="#FFE09C"/>
<path id="Vector_11" d="M17.2289 93.1546C17.2289 92.917 17.2751 92.6824 17.3657 92.4577C17.5422 92.0209 17.5911 91.543 17.5067 91.0796C17.4224 90.6161 17.2082 90.1861 16.8891 89.8396C13.0162 85.6318 10.7947 79.6515 10.7947 73.4323C10.7947 70.6065 11.2463 67.8639 12.0846 65.3218H8.76596C7.92766 67.8639 7.47598 70.6068 7.47598 73.4323C7.47598 79.6515 9.69718 85.6318 13.5704 89.8396C13.8895 90.1861 14.1036 90.6161 14.188 91.0796C14.2723 91.543 14.2234 92.0209 14.047 92.4577C13.9569 92.679 13.9105 92.9157 13.9103 93.1546C13.9108 93.6496 14.1077 94.1242 14.4577 94.4743C14.8077 94.8243 15.2823 95.0212 15.7773 95.0217H19.096C18.601 95.0213 18.1263 94.8244 17.7763 94.4744C17.4262 94.1243 17.2294 93.6497 17.2289 93.1546Z" fill="white"/>
<path id="Vector_12" d="M38.362 93.1546C38.362 92.917 38.3159 92.6824 38.225 92.457C38.0486 92.0203 37.9998 91.5425 38.0842 91.0792C38.1686 90.6159 38.3828 90.186 38.7018 89.8396C42.5748 85.6318 44.796 79.6515 44.796 73.4323C44.796 70.6065 44.3443 67.8639 43.506 65.3218H28.7093V87.0612C28.7093 88.7145 27.3407 89.5502 26.2203 89.5502C25.5601 89.5502 24.9271 89.288 24.4603 88.8212C23.9935 88.3544 23.7313 87.7213 23.7313 87.0612V65.3218H12.085C11.2467 67.8639 10.795 70.6068 10.795 73.4323C10.795 79.6515 13.0162 85.6318 16.8894 89.8396C17.2085 90.1861 17.4226 90.6161 17.507 91.0796C17.5914 91.543 17.5425 92.0209 17.366 92.4577C17.276 92.679 17.2296 92.9157 17.2293 93.1546C17.2298 93.6496 17.4267 94.1242 17.7767 94.4743C18.1268 94.8243 18.6014 95.0212 19.0964 95.0217H36.4946C36.9897 95.0213 37.4644 94.8244 37.8145 94.4744C38.1646 94.1243 38.3615 93.6497 38.362 93.1546Z" fill="#FFE09C"/>
<path id="Vector_13" d="M47.6255 62.1072C47.5803 61.9585 43.882 53.3422 37.8888 49.8301V19.9473C37.8888 15.3303 34.133 11.5742 29.5161 11.5742H22.9251C18.3082 11.5742 14.5521 15.3303 14.5521 19.9473V49.7179C7.66449 53.7975 4.69194 61.9585 4.64681 62.1069C3.25495 65.6041 2.49829 69.4564 2.49829 73.4326C2.49829 80.5037 4.79847 87.1036 9.00292 92.1748C8.95579 92.4981 8.93256 92.8253 8.93256 93.1548C8.93256 96.9295 12.0033 100 15.7777 100H36.4946C40.2689 100 43.34 96.9292 43.34 93.1548C43.34 92.8253 43.3165 92.4981 43.2694 92.1748C47.4735 87.1036 49.774 80.5037 49.774 73.4326C49.7737 69.4564 49.0173 65.6044 47.6255 62.1072ZM35.5232 54.2356C37.7895 55.8113 39.7107 57.9031 41.2078 60.3437H28.7093V54.2356H35.5232ZM19.5298 19.9473C19.5298 18.0752 21.0527 16.5522 22.9248 16.5522H29.5154C31.3629 16.5522 32.8676 18.0364 32.9068 19.8746C32.9074 19.8991 32.9104 19.9227 32.9104 19.9473V49.2572H19.5295L19.5298 19.9473ZM16.7484 54.2356H23.7313V60.3437H11.0642C12.5612 57.9031 14.4821 55.8113 16.7484 54.2356ZM15.7774 95.0219C15.2823 95.0214 14.8077 94.8245 14.4577 94.4745C14.1077 94.1245 13.9108 93.6499 13.9103 93.1548C13.9103 92.9172 13.9564 92.6826 14.047 92.4579C14.2235 92.0212 14.2724 91.5433 14.188 91.0798C14.1037 90.6164 13.8895 90.1864 13.5704 89.8398C9.69752 85.632 7.47599 79.6518 7.47599 73.4326C7.47599 70.6067 7.92766 67.8641 8.76596 65.322H23.7309V87.0614C23.7309 87.7215 23.9932 88.3546 24.4599 88.8214C24.9267 89.2882 25.5598 89.5504 26.2199 89.5504C27.3403 89.5504 28.709 88.7148 28.709 87.0614V65.3217H43.5053C44.3433 67.8638 44.7953 70.6067 44.7953 73.4322C44.7953 79.6514 42.5741 85.6317 38.7012 89.8395C38.3822 90.186 38.1681 90.6158 38.0837 91.0791C37.9993 91.5425 38.048 92.0202 38.2243 92.4569C38.3152 92.6823 38.3614 92.9169 38.3614 93.1545C38.3608 93.6496 38.1639 94.1242 37.8138 94.4743C37.4637 94.8243 36.989 95.0212 36.4939 95.0216H15.7774V95.0219Z" fill="#DE4C90"/>
</g>
</g>
<defs>
<clipPath id="clip0_51_12">
<rect width="100" height="100" fill="white"/>
</clipPath>
</defs>
</svg>
