<svg width="100" height="100" viewBox="0 0 100 100" fill="none" xmlns="http://www.w3.org/2000/svg">
<g id="guarantee 1">
<g id="Group">
<path id="Vector" d="M5.13775 44.234C4.93085 44.7257 4.82444 45.2539 4.82478 45.7873V59.7271C4.82478 60.1986 4.91034 60.6489 5.06055 61.0696L8.0413 58.0886V47.1379L5.13775 44.234ZM24.561 21.6589C31.7072 16.864 41.156 14.1432 51.2864 13.9299C50.858 13.9206 50.4305 13.9087 49.9998 13.9087C39.384 13.9087 29.436 16.6614 21.9878 21.6589C15.7121 25.8706 11.9111 31.2258 11.0738 36.9422H13.6471C14.4843 31.2258 18.2853 25.8706 24.561 21.6589ZM10.1697 82.07V68.5725H6.95315V82.07C6.95315 84.2871 8.75666 86.0906 10.9738 86.0906H14.1903C11.9735 86.0906 10.1697 84.2871 10.1697 82.07ZM48.2015 68.5725H45.591C45.6926 70.6996 47.4498 72.4001 49.6016 72.4001H50.3984C50.711 72.4001 51.0134 72.3606 51.3051 72.2927C49.5865 71.8939 48.2886 70.3911 48.2015 68.5725Z" fill="white"/>
<path id="Vector_2" d="M53.3074 63.7523H68.7715L61.0235 56.0249L53.3074 63.7523ZM31.2417 63.7523H46.7219L38.9759 56.0249L31.2417 63.7523Z" fill="#FFA5A5"/>
<path id="Vector_3" d="M64.4344 52.6135L72.0466 45.0011L79.659 52.6133L72.0468 60.2257L64.4344 52.6135Z" fill="#FFA5A5"/>
<path id="Vector_4" d="M75.3483 63.7523H90.7943L83.0718 56.0252L75.3483 63.7523ZM86.4829 52.6132L94.9395 61.0697C95.089 60.649 95.1752 60.1987 95.1752 59.7271V45.7874C95.1756 45.2539 95.0692 44.7258 94.8623 44.2341L86.4829 52.6132Z" fill="#FFA5A5"/>
<path id="Vector_5" d="M27.9489 60.2251L20.3372 52.6132L27.9496 45.001L35.5613 52.613L27.9489 60.2251Z" fill="#FFA5A5"/>
<path id="Vector_6" d="M22.111 44.0187L24.3626 41.7671H9.49388L16.9282 49.2018L17.8932 48.2368L13.6754 44.0187H22.111Z" fill="white"/>
<path id="Vector_7" d="M50 60.2261L42.3879 52.6137L50.0003 45.0015L57.6124 52.6139L50 60.2261Z" fill="#FFA5A5"/>
<path id="Vector_8" d="M16.9282 56.0251L9.20536 63.7522H24.6894L16.9282 56.0251Z" fill="#FFA5A5"/>
<path id="Vector_9" d="M27.9521 45.0007L35.5642 52.6131L27.9523 60.2248L20.3401 52.6124L27.9521 45.0007Z" fill="#FFA5A5"/>
<path id="Vector_10" d="M50 45.0002L57.6122 52.6126L49.9998 60.2248L42.3876 52.6124L50 45.0002Z" fill="#FFA5A5"/>
<path id="Vector_11" d="M24.6894 63.7523L16.9282 56.0252L9.20536 63.7523H24.6894ZM38.9759 56.0249L31.2417 63.7523H46.7219L38.9759 56.0249ZM61.0235 56.0249L53.3074 63.7523H68.7715L61.0235 56.0249ZM86.4829 52.6132L94.9395 61.0697C95.089 60.649 95.1752 60.1987 95.1752 59.7271V45.7874C95.1756 45.2539 95.0692 44.7258 94.8623 44.2341L86.4829 52.6132Z" fill="#FFA5A5"/>
<path id="Vector_12" d="M72.0474 45.0002L79.6596 52.6126L72.0472 60.2248L64.435 52.6124L72.0474 45.0002Z" fill="#FFA5A5"/>
<path id="Vector_13" d="M83.0718 56.0253L75.3483 63.7523H90.7943L83.0718 56.0253ZM65.9908 44.2342L68.4578 41.7671H53.5888L56.0562 44.2342L61.0235 49.2018L65.9908 44.2342ZM31.5415 41.7671L34.0083 44.2342L38.9759 49.2018L43.9431 44.2342L46.4102 41.7671H31.5415ZM38.9759 56.025L31.2417 63.7523H46.7219L38.9759 56.025ZM61.0235 56.025L53.3074 63.7523H68.7715L61.0235 56.025Z" fill="#FFA5A5"/>
<path id="Vector_14" d="M50 45.0002L57.6122 52.6126L49.9998 60.2248L42.3876 52.6124L50 45.0002Z" fill="#FFA5A5"/>
<path id="Vector_15" d="M27.9521 45.0007L35.5642 52.6131L27.9523 60.2248L20.3401 52.6124L27.9521 45.0007Z" fill="#FFA5A5"/>
<path id="Vector_16" d="M9.20536 63.7523H24.6894L16.9282 56.0252L9.20536 63.7523ZM86.4829 52.6132L94.9395 61.0697C95.089 60.649 95.1752 60.1987 95.1752 59.7271V45.7874C95.1756 45.2539 95.0692 44.7258 94.8623 44.2341L86.4829 52.6132Z" fill="#FFA5A5"/>
<path id="Vector_17" d="M72.0474 45.0002L79.6596 52.6126L72.0472 60.2248L64.435 52.6124L72.0474 45.0002Z" fill="#FFA5A5"/>
<path id="Vector_18" d="M90.5061 41.7671H75.6365L78.1042 44.2342L83.0718 49.2018L88.0391 44.2342L90.5061 41.7671ZM83.0718 56.0253L75.3483 63.7523H90.7943L83.0718 56.0253Z" fill="#FFA5A5"/>
<path id="Vector_19" d="M24.561 21.6589C18.2853 25.8706 14.4843 31.2258 13.6471 36.9422H14.805C15.6815 31.7575 19.3799 27.0237 25.442 23.4216C32.0398 19.5009 40.7614 17.3423 50.0002 17.3423C59.239 17.3423 67.9599 19.5013 74.5583 23.4216C80.6208 27.0237 84.3191 31.7575 85.1953 36.9422H88.9265C88.0892 31.2261 84.2883 25.8706 78.0115 21.6589C70.8664 16.8644 61.4169 14.1435 51.2877 13.9299H51.2868C41.156 14.1432 31.7072 16.864 24.561 21.6589Z" fill="#FFE09C"/>
<path id="Vector_20" d="M50 45.0002L57.6122 52.6126L49.9998 60.2248L42.3876 52.6124L50 45.0002Z" fill="#FFA5A5"/>
<path id="Vector_21" d="M65.9908 44.2342L68.4578 41.7671H53.5888L56.0562 44.2342L61.0235 49.2018L65.9908 44.2342ZM46.4102 41.7671H31.5415L34.0083 44.2342L38.9759 49.2018L43.9431 44.2342L46.4102 41.7671ZM61.0235 56.025L53.3074 63.7523H68.7715L61.0235 56.025ZM94.9394 61.0697C95.089 60.649 95.1752 60.1987 95.1752 59.7272V45.7874C95.1756 45.254 95.0691 44.7258 94.8623 44.2342L86.4829 52.6132L94.9394 61.0697ZM83.0718 56.0253L75.3483 63.7523H90.7943L83.0718 56.0253Z" fill="#FFA5A5"/>
<path id="Vector_22" d="M72.0474 60.2266L64.4353 52.6142L72.0477 45.002L79.6598 52.6144L72.0474 60.2266Z" fill="#FFA5A5"/>
<path id="Vector_23" d="M46.7219 63.7523L38.9759 56.0249L31.2417 63.7523H46.7219ZM10.1697 82.07V68.5725H6.95315V82.07C6.95315 84.2872 8.75666 86.0907 10.9738 86.0907H14.1903C11.9735 86.0907 10.1697 84.2872 10.1697 82.07Z" fill="#FFA5A5"/>
<path id="Vector_24" d="M35.5644 52.6133L27.9522 60.2257L20.3398 52.6135L27.952 45.0011L35.5644 52.6133Z" fill="#FFA5A5"/>
<path id="Vector_25" d="M78.1042 44.234L83.0718 49.2016L88.0391 44.234L90.5061 41.767H75.6365L78.1042 44.234ZM14.8047 36.9422C15.6812 31.7575 19.3795 27.0237 25.4417 23.4215C32.0394 19.5009 40.761 17.3423 49.9998 17.3423C59.2387 17.3423 67.9596 19.5013 74.558 23.4215C80.6205 27.0237 84.3188 31.7575 85.195 36.9422H88.9262C88.0889 31.2261 84.2879 25.8706 78.0112 21.6589C70.866 16.8644 61.4166 14.1435 51.2874 13.9299C50.8587 13.9206 50.4309 13.9087 49.9998 13.9087C39.384 13.9087 29.436 16.6614 21.9878 21.6589C15.7121 25.8706 11.9111 31.2258 11.0738 36.9422H14.8047ZM9.20536 63.7522H24.6894L16.9282 56.0252L9.20536 63.7522Z" fill="#FFA5A5"/>
<path id="Vector_26" d="M93.0465 82.07V68.5725H59.2386C59.1351 73.3609 55.2106 77.225 50.3984 77.225H49.6016C44.7894 77.225 40.8649 73.3606 40.7614 68.5725H10.1697V82.07C10.1697 84.2871 11.9732 86.0906 14.1903 86.0906H89.0259C91.243 86.0906 93.0465 84.2871 93.0465 82.07Z" fill="#FFA5A5"/>
<path id="Vector_27" d="M38.9759 56.025L31.2417 63.7523H46.7219L38.9759 56.025ZM61.0235 56.025L53.3074 63.7523H68.7715L61.0235 56.025ZM65.9908 44.2342L68.4578 41.7671H53.5888L56.0562 44.2342L61.0235 49.2018L65.9908 44.2342ZM9.20536 63.7523H24.6894L16.9282 56.0253L9.20536 63.7523Z" fill="#FFA5A5"/>
<path id="Vector_28" d="M27.9521 45.0007L35.5642 52.6131L27.9523 60.2248L20.3401 52.6124L27.9521 45.0007Z" fill="#FFA5A5"/>
<path id="Vector_29" d="M31.5415 41.7671L34.0083 44.2342L38.9759 49.2018L43.9431 44.2342L46.4102 41.7671H31.5415Z" fill="#FFA5A5"/>
<path id="Vector_30" d="M50 45.0002L57.6122 52.6126L49.9998 60.2248L42.3876 52.6124L50 45.0002Z" fill="#FFA5A5"/>
<path id="Vector_31" d="M72.0474 45.0002L79.6596 52.6126L72.0472 60.2248L64.435 52.6124L72.0474 45.0002Z" fill="#FFA5A5"/>
<path id="Vector_32" d="M50.3984 77.2252H49.6016C44.7894 77.2252 40.8649 73.3609 40.7614 68.5728H6.95315V82.0703C6.95315 84.2874 8.75666 86.0909 10.9738 86.0909H89.0259C91.243 86.0909 93.0465 84.2874 93.0465 82.0703V68.5728H59.2386C59.1351 73.3609 55.2103 77.2252 50.3984 77.2252ZM86.4829 52.6131L94.9394 61.0696C95.089 60.6489 95.1752 60.1986 95.1752 59.7271V45.7873C95.1756 45.2539 95.0692 44.7257 94.8622 44.234L86.4829 52.6131ZM83.0718 56.0252L75.3483 63.7522H90.7943L83.0718 56.0252ZM14.8047 36.9422C15.6812 31.7575 19.3795 27.0237 25.4417 23.4215C32.0394 19.5009 40.761 17.3423 49.9998 17.3423C59.2386 17.3423 67.9596 19.5013 74.558 23.4215C80.6205 27.0237 84.3188 31.7575 85.195 36.9422H88.9262C88.0889 31.2261 84.2879 25.8706 78.0112 21.6589C70.866 16.8644 61.4166 14.1435 51.2874 13.9299C50.8586 13.9206 50.4309 13.9087 49.9998 13.9087C39.384 13.9087 29.436 16.6614 21.9878 21.6589C15.7121 25.8706 11.9111 31.2258 11.0738 36.9422H14.8047ZM90.5061 41.767H75.6365L78.1042 44.234L83.0718 49.2016L88.0391 44.234L90.5061 41.767Z" fill="#FFA5A5"/>
<path id="Vector_33" d="M51.3051 72.2932C53.0237 71.8941 54.3219 70.3913 54.4087 68.573H48.2015C48.2887 70.3913 49.5865 71.8941 51.3051 72.2932Z" fill="#FFE09C"/>
<path id="Vector_34" d="M38.9759 56.025L31.2417 63.7523H46.7219L38.9759 56.025ZM65.9908 44.2342L68.4578 41.7671H53.5888L56.0562 44.2342L61.0235 49.2018L65.9908 44.2342ZM49.6016 72.4006H50.3984C50.7107 72.4006 51.013 72.361 51.3051 72.2932C53.0237 71.894 54.3219 70.3912 54.4087 68.5729H45.591C45.6929 70.7 47.4501 72.4006 49.6016 72.4006Z" fill="#FFA5A5"/>
<path id="Vector_35" d="M27.9521 45.0007L35.5642 52.6131L27.9523 60.2248L20.3401 52.6124L27.9521 45.0007Z" fill="#FFA5A5"/>
<path id="Vector_36" d="M16.9282 56.0251L9.20536 63.7522H24.6894L16.9282 56.0251Z" fill="#FFA5A5"/>
<path id="Vector_37" d="M50 45.0002L57.6122 52.6126L49.9998 60.2248L42.3876 52.6124L50 45.0002Z" fill="#FFA5A5"/>
<path id="Vector_38" d="M61.0235 56.025L53.3074 63.7523H68.7714L61.0235 56.025ZM31.5415 41.7671L34.0083 44.2342L38.9759 49.2018L43.9431 44.2342L46.4102 41.7671H31.5415ZM83.0718 56.0253L75.3483 63.7523H90.7943L83.0718 56.0253ZM50.3984 77.2254H49.6016C44.7894 77.2254 40.8649 73.361 40.7614 68.5729H6.95315V82.0704C6.95315 84.2876 8.75666 86.0911 10.9738 86.0911H89.0259C91.243 86.0911 93.0465 84.2876 93.0465 82.0704V68.5729H59.2386C59.1351 73.361 55.2103 77.2254 50.3984 77.2254Z" fill="#FFA5A5"/>
<path id="Vector_39" d="M72.0474 45.0002L79.6596 52.6126L72.0472 60.2248L64.435 52.6124L72.0474 45.0002Z" fill="#FFA5A5"/>
<path id="Vector_40" d="M86.4829 52.6131L94.9394 61.0696C95.089 60.6489 95.1752 60.1986 95.1752 59.7271V45.7873C95.1755 45.2539 95.0691 44.7257 94.8622 44.234L86.4829 52.6131ZM14.8047 36.9422C15.6812 31.7575 19.3795 27.0237 25.4417 23.4215C32.0394 19.5009 40.761 17.3423 49.9998 17.3423C59.2386 17.3423 67.9596 19.5013 74.558 23.4215C80.6205 27.0237 84.3188 31.7575 85.195 36.9422H88.9262C88.0889 31.2261 84.2879 25.8706 78.0112 21.6589C70.866 16.8644 61.4165 14.1435 51.2874 13.9299C50.8586 13.9206 50.4309 13.9087 49.9998 13.9087C39.384 13.9087 29.436 16.6614 21.9878 21.6589C15.7121 25.8706 11.9111 31.2258 11.0738 36.9422H14.8047ZM90.5061 41.767H75.6365L78.1042 44.234L83.0718 49.2016L88.039 44.234L90.5061 41.767Z" fill="#FFA5A5"/>
<path id="Vector_41" d="M8.0413 58.0886L13.5161 52.6131L8.0413 47.1379V58.0886Z" fill="#FFA5A5"/>
<path id="Vector_42" d="M65.9908 44.2342L68.4578 41.7671H53.5888L56.0562 44.2342L61.0235 49.2018L65.9908 44.2342ZM61.0235 56.025L53.3074 63.7523H68.7715L61.0235 56.025ZM38.9759 56.025L31.2417 63.7523H46.7219L38.9759 56.025ZM31.5415 41.7671L34.0083 44.2342L38.9759 49.2018L43.9431 44.2342L46.4102 41.7671H31.5415Z" fill="#FFA5A5"/>
<path id="Vector_43" d="M27.9521 45.0007L35.5642 52.6131L27.9523 60.2248L20.3401 52.6124L27.9521 45.0007Z" fill="#FFA5A5"/>
<path id="Vector_44" d="M72.0474 45.0002L79.6596 52.6126L72.0472 60.2248L64.435 52.6124L72.0474 45.0002Z" fill="#FFA5A5"/>
<path id="Vector_45" d="M9.20536 63.7522H24.6894L16.9282 56.0251L9.20536 63.7522Z" fill="#FFA5A5"/>
<path id="Vector_46" d="M50 45.0002L57.6122 52.6126L49.9998 60.2248L42.3876 52.6124L50 45.0002Z" fill="#FFA5A5"/>
<path id="Vector_47" d="M49.6016 72.4007H50.3984C50.7107 72.4007 51.013 72.3611 51.3051 72.2932C53.0237 71.8941 54.3219 70.3913 54.4087 68.573H45.591C45.6929 70.7001 47.4501 72.4007 49.6016 72.4007Z" fill="#FFA5A5"/>
<path id="Vector_48" d="M50.3984 77.2252H49.6016C44.7894 77.2252 40.8649 73.3609 40.7614 68.5728H6.95315V82.0703C6.95315 84.2874 8.75666 86.0909 10.9738 86.0909H89.0259C91.243 86.0909 93.0465 84.2874 93.0465 82.0703V68.5728H59.2386C59.1351 73.3609 55.2103 77.2252 50.3984 77.2252ZM13.5161 52.6131L8.0413 47.1379L5.13775 44.2344C4.93085 44.726 4.82444 45.2542 4.82478 45.7876V59.7274C4.82478 60.1989 4.91034 60.6492 5.06055 61.07L8.0413 58.0886L13.5161 52.6131ZM86.4829 52.6131L94.9394 61.0696C95.089 60.6489 95.1752 60.1986 95.1752 59.7271V45.7873C95.1756 45.2539 95.0692 44.7257 94.8622 44.234L86.4829 52.6131ZM83.0718 56.0252L75.3483 63.7522H90.7943L83.0718 56.0252ZM90.5061 41.767H75.6365L78.1042 44.234L83.0718 49.2016L88.0391 44.234L90.5061 41.767ZM14.8047 36.9422C15.6812 31.7575 19.3795 27.0237 25.4417 23.4215C32.0394 19.5009 40.761 17.3423 49.9998 17.3423C59.2387 17.3423 67.9596 19.5013 74.558 23.4215C80.6205 27.0237 84.3188 31.7575 85.195 36.9422H88.9262C88.0889 31.2261 84.2879 25.8706 78.0112 21.6589C70.866 16.8644 61.4166 14.1435 51.2874 13.9299C50.8586 13.9206 50.4309 13.9087 49.9998 13.9087C39.384 13.9087 29.436 16.6614 21.9878 21.6589C15.7121 25.8706 11.9111 31.2258 11.0738 36.9422H14.8047Z" fill="#FFA5A5"/>
<path id="Vector_49" d="M13.6754 44.0186L17.8932 48.2367L21.8955 44.2341L22.1113 44.0186H13.6754Z" fill="#FFA5A5"/>
<path id="Vector_50" d="M44.1586 44.0187L46.4102 41.7671H31.5415L38.9759 49.2018L39.9408 48.2368L35.723 44.0187H44.1586Z" fill="white"/>
<path id="Vector_51" d="M35.723 44.0186L39.9408 48.2367L43.9431 44.2341L44.159 44.0186H35.723Z" fill="#FFA5A5"/>
<path id="Vector_52" d="M66.2063 44.0187L68.4578 41.7671H53.5888L61.0235 49.2018L61.9884 48.2368L57.7703 44.0187H66.2063Z" fill="white"/>
<path id="Vector_53" d="M57.7703 44.0186L61.9885 48.2367L65.9908 44.2341L66.2066 44.0186H57.7703Z" fill="#FFA5A5"/>
<path id="Vector_54" d="M88.2546 44.0187L90.5061 41.7671H75.6371L83.0718 49.2018L84.0367 48.2368L79.8186 44.0187H88.2546Z" fill="white"/>
<path id="Vector_55" d="M79.8186 44.0186L84.0367 48.2367L88.039 44.2341L88.2549 44.0186H88.2545H79.8186Z" fill="#FFA5A5"/>
<path id="Vector_56" d="M96.3367 38.6261C95.5751 38.0723 94.7297 37.6441 93.8326 37.3578C93.1385 29.8492 88.5392 22.9131 80.6996 17.6528C72.4653 12.1271 61.5626 9.08398 50.0002 9.08398C38.4371 9.08398 27.5341 12.1271 19.3001 17.6528C11.4608 22.9128 6.86148 29.8492 6.16736 37.3578C5.27006 37.6442 4.42445 38.0725 3.66265 38.6264C3.56905 38.6866 1.90735e-06 41.1598 1.90735e-06 45.7877V59.7274C1.90735e-06 61.9192 0.802845 63.9263 2.12837 65.4728V82.0704C2.12837 86.9476 6.09627 90.9158 10.9738 90.9158H89.0259C93.9034 90.9158 97.8713 86.9476 97.8713 82.0704V65.4728C99.1962 63.926 99.9997 61.9192 99.9997 59.7274V45.7877C100 41.2727 96.431 38.6866 96.3367 38.6261ZM20.34 52.6131L27.9516 45.0009L35.5638 52.6131L27.9516 60.2254L20.34 52.6131ZM24.6894 63.7523H9.20536L16.9282 56.0252L24.6894 63.7523ZM49.9998 45.0009L57.6121 52.6131L49.9998 60.2254L42.3876 52.6131L49.9998 45.0009ZM38.9759 49.2017L34.0086 44.2344L31.5415 41.767H46.4102L43.9431 44.2344L38.9759 49.2017ZM56.0562 44.2341L53.5888 41.7667H68.4578L65.9908 44.2341L61.0235 49.2014L56.0562 44.2341ZM19.7362 36.9423C20.6346 33.4755 23.4571 30.2127 27.9062 27.5693C33.7696 24.0855 41.6153 22.1669 49.9998 22.1669C58.3834 22.1669 66.2301 24.0855 72.0931 27.5693C76.5416 30.213 79.3644 33.4752 80.2631 36.9423H19.7362ZM38.9759 56.0249L46.7219 63.7523H31.2417L38.9759 56.0249ZM48.2015 68.5725H54.4087C54.3216 70.3908 53.0234 71.8936 51.3051 72.2928C51.013 72.3606 50.7104 72.4002 50.3984 72.4002H49.6016C47.4501 72.4002 45.6929 70.6996 45.591 68.5725H48.2015ZM53.3074 63.7523L61.0232 56.0249L68.7711 63.7523H53.3074ZM64.4353 52.6131L72.0475 45.0009L79.6597 52.6131L72.0475 60.2254L64.4353 52.6131ZM83.0718 56.0252L90.7946 63.7523H75.3486L83.0718 56.0252ZM78.1042 44.2341L75.6365 41.7667H90.5061L88.039 44.2341L83.0718 49.2014L78.1042 44.2341ZM21.9878 21.659C29.436 16.6615 39.384 13.9088 49.9998 13.9088C50.4309 13.9088 50.8586 13.9203 51.2874 13.93C61.4166 14.1436 70.8661 16.8644 78.0112 21.659C84.2879 25.8707 88.0886 31.2259 88.9262 36.9423H85.195C84.3185 31.7576 80.6201 27.0238 74.558 23.4216C67.9596 19.501 59.2387 17.3424 49.9998 17.3424C40.761 17.3424 32.0394 19.5013 25.4417 23.4216C19.3792 27.0238 15.6809 31.7576 14.8047 36.9423H11.0735C11.9111 31.2259 15.7121 25.8707 21.9878 21.659ZM24.3626 41.767L22.1113 44.0186L21.8955 44.2344L17.8932 48.2367L16.9282 49.2017L11.961 44.2344L9.49388 41.767H24.3626ZM4.82478 59.7271V45.7874C4.82478 45.237 4.93672 44.7121 5.13775 44.2341L8.0413 47.138L13.5161 52.6131L8.0413 58.0886L5.06055 61.0697C4.90532 60.6391 4.82556 60.1849 4.82478 59.7271ZM93.0465 82.07C93.0465 84.2872 91.243 86.0907 89.0259 86.0907H10.9738C8.75666 86.0907 6.95315 84.2872 6.95315 82.07V68.5725H40.761C40.8646 73.361 44.7891 77.225 49.6013 77.225H50.398C55.2103 77.225 59.1348 73.3607 59.2383 68.5725H93.0462V82.07H93.0465ZM95.1752 59.7271C95.1752 60.1987 95.089 60.649 94.9394 61.0697L86.4829 52.6131L94.8623 44.2341C95.0691 44.7258 95.1756 45.2539 95.1752 45.7874V59.7271Z" fill="#DE4C90"/>
</g>
</g>
</svg>
