<svg width="105" height="19" viewBox="0 0 105 19" fill="none" xmlns="http://www.w3.org/2000/svg">
<g id="Group">
<path id="Vector" d="M19.385 6.94492C19.3076 6.70777 19.1654 6.497 18.9745 6.33639C18.7837 6.17578 18.5517 6.07174 18.3048 6.03601L13.1986 5.29404L10.9169 0.683679C10.4651 -0.227893 8.97192 -0.227893 8.52013 0.683679L6.23843 5.29404L1.14429 6.03601C0.89756 6.07226 0.66585 6.17669 0.475264 6.33752C0.284679 6.49836 0.142791 6.70922 0.0655832 6.94635C-0.011621 7.1833 -0.0208597 7.43714 0.0389156 7.67907C0.0986909 7.921 0.225086 8.14133 0.403757 8.31505L4.09844 11.9162L3.22686 16.997C3.18492 17.2431 3.21249 17.4959 3.30647 17.7271C3.40046 17.9583 3.55713 18.1587 3.75884 18.3056C3.96111 18.4517 4.20012 18.5385 4.44901 18.5562C4.6979 18.5739 4.94679 18.5219 5.16772 18.4059L9.71799 16.0065L14.2816 18.4059C14.4768 18.5089 14.6907 18.5597 14.9032 18.5597C15.1856 18.559 15.4608 18.4703 15.6905 18.3058C15.8921 18.1588 16.0487 17.9584 16.1427 17.7272C16.2367 17.4961 16.2643 17.2432 16.2225 16.9972L15.3523 11.9164L19.047 8.31525C19.2258 8.14128 19.3523 7.92066 19.412 7.67843C19.4718 7.43621 19.4624 7.18209 19.385 6.94492ZM40.7724 6.94492C40.695 6.70777 40.5528 6.497 40.3619 6.33639C40.1711 6.17578 39.9391 6.07174 39.6922 6.03601L34.586 5.29404L32.3043 0.683679C31.8525 -0.227893 30.3593 -0.227893 29.9075 0.683679L27.6258 5.29404L22.5317 6.03601C22.285 6.07226 22.0532 6.17669 21.8627 6.33752C21.6721 6.49836 21.5302 6.70922 21.453 6.94635C21.3758 7.1833 21.3665 7.43714 21.4263 7.67907C21.4861 7.921 21.6125 8.14133 21.7911 8.31505L25.4858 11.9162L24.6143 16.997C24.5722 17.2431 24.5997 17.496 24.6937 17.7272C24.7877 17.9584 24.9444 18.1588 25.1462 18.3056C25.3485 18.4517 25.5875 18.5385 25.8364 18.5563C26.0853 18.574 26.3342 18.5219 26.5551 18.4059L31.1054 16.0065L35.669 18.4059C35.8642 18.5089 36.0781 18.5597 36.2906 18.5597C36.573 18.559 36.8482 18.4703 37.0779 18.3058C37.2795 18.1588 37.4361 17.9584 37.5301 17.7272C37.6241 17.4961 37.6517 17.2432 37.6098 16.9972L36.7397 11.9164L40.4344 8.31525C40.6132 8.14128 40.7397 7.92066 40.7994 7.67843C40.8591 7.43621 40.8498 7.18209 40.7724 6.94492ZM62.1598 6.94492C62.0824 6.70777 61.9402 6.497 61.7493 6.33639C61.5585 6.17578 61.3265 6.07174 61.0796 6.03601L55.9734 5.29404L53.6917 0.683679C53.2399 -0.227893 51.7467 -0.227893 51.2949 0.683679L49.0132 5.29404L43.9191 6.03601C43.6723 6.07226 43.4406 6.17669 43.25 6.33752C43.0595 6.49836 42.9176 6.70922 42.8404 6.94635C42.7632 7.1833 42.7539 7.43714 42.8137 7.67907C42.8735 7.921 42.9999 8.14133 43.1785 8.31505L46.8732 11.9162L46.0016 16.997C45.9597 17.2431 45.9873 17.4959 46.0813 17.7271C46.1752 17.9583 46.3319 18.1587 46.5336 18.3056C46.7359 18.4517 46.9749 18.5385 47.2238 18.5562C47.4727 18.5739 47.7216 18.5219 47.9425 18.4059L52.4926 16.0065L57.0562 18.4059C57.2514 18.5089 57.4653 18.5597 57.6778 18.5597C57.9602 18.559 58.2354 18.4703 58.4651 18.3058C58.6667 18.1588 58.8233 17.9584 58.9173 17.7272C59.0113 17.4961 59.0389 17.2432 58.997 16.9972L58.1269 11.9164L61.8216 8.31525C62.0005 8.14131 62.127 7.9207 62.1867 7.67847C62.2465 7.43624 62.2372 7.1821 62.1598 6.94492ZM83.5471 6.94492C83.4698 6.70777 83.3276 6.497 83.1367 6.33639C82.9459 6.17578 82.7139 6.07174 82.467 6.03601L77.3608 5.29404L75.0791 0.683679C74.6273 -0.227893 73.1341 -0.227893 72.6823 0.683679L70.4006 5.29404L65.3065 6.03601C65.0597 6.07226 64.828 6.17669 64.6374 6.33752C64.4469 6.49836 64.305 6.70922 64.2278 6.94635C64.1506 7.1833 64.1413 7.43714 64.2011 7.67907C64.2609 7.921 64.3873 8.14133 64.5659 8.31505L68.2606 11.9162L67.389 16.997C67.3471 17.2431 67.3747 17.4959 67.4687 17.7271C67.5626 17.9583 67.7193 18.1587 67.921 18.3056C68.1233 18.4517 68.3623 18.5385 68.6112 18.5562C68.8601 18.5739 69.109 18.5219 69.3299 18.4059L73.88 16.0065L78.4436 18.4059C78.6388 18.5089 78.8527 18.5597 79.0652 18.5597C79.3476 18.559 79.6228 18.4703 79.8525 18.3058C80.0541 18.1588 80.2107 17.9584 80.3047 17.7272C80.3987 17.4961 80.4263 17.2432 80.3844 16.9972L79.5143 11.9164L83.209 8.31525C83.3878 8.14129 83.5143 7.92068 83.5741 7.67846C83.6338 7.43624 83.6245 7.18211 83.5471 6.94492ZM104.935 6.94492C104.857 6.70788 104.715 6.49722 104.524 6.33664C104.333 6.17606 104.101 6.07194 103.854 6.03601L98.7482 5.29404L96.4665 0.683679C96.0147 -0.227893 94.5215 -0.227893 94.0697 0.683679L91.788 5.29404L86.6939 6.03601C86.4471 6.07226 86.2154 6.17669 86.0248 6.33752C85.8343 6.49836 85.6924 6.70922 85.6152 6.94635C85.5379 7.1833 85.5287 7.43714 85.5885 7.67907C85.6483 7.921 85.7747 8.14133 85.9533 8.31505L89.648 11.9162L88.7764 16.997C88.7345 17.2431 88.7621 17.4959 88.856 17.7271C88.95 17.9583 89.1067 18.1587 89.3084 18.3056C89.5367 18.4708 89.8113 18.5597 90.093 18.5595C90.3109 18.5594 90.5255 18.5066 90.7185 18.4057L95.2688 16.0063L99.8336 18.4057C100.054 18.5228 100.303 18.5753 100.552 18.5574C100.801 18.5394 101.04 18.4517 101.241 18.3042C101.443 18.1572 101.599 17.957 101.693 17.726C101.786 17.4951 101.814 17.2425 101.772 16.9968L100.902 11.916L104.597 8.31484C104.775 8.14077 104.901 7.92022 104.961 7.67812C105.021 7.43603 105.012 7.18205 104.935 6.94492Z" fill="#F9D404"/>
</g>
</svg>
