<svg width="100" height="100" viewBox="0 0 100 100" fill="none" xmlns="http://www.w3.org/2000/svg">
<g id="top-masters 1" clip-path="url(#clip0_51_27)">
<g id="Group">
<path id="Vector" d="M81.7029 57.6477H65.3317V59.3351H81.7029C83.5436 59.3351 85.0411 60.8327 85.0411 62.6733V60.9859C85.0411 59.1456 83.5436 57.6477 81.7029 57.6477ZM38.8868 57.6477H61.1132V59.3351H38.8868V57.6477ZM17.7712 62.6736C17.7712 60.8329 19.2685 59.3354 21.1094 59.3354H34.6684V57.648H18.2971C16.4562 57.648 14.9589 59.1456 14.9589 60.9862V64.1186C14.9589 65.9294 16.4089 67.405 18.2091 67.4523C17.9223 66.951 17.7714 66.3835 17.7712 65.8059V62.6736ZM32.3305 49.6543V48.1768H23.697V53.4293H25.7492V49.6543H32.3305Z" fill="white"/>
<path id="Vector_2" d="M34.4397 43.9582C35.6048 43.9582 36.5489 44.9023 36.5489 46.0674V53.4295H63.4511V46.0674C63.4511 44.9023 64.3952 43.9582 65.5603 43.9582H68.3088C67.9744 42.545 67.0933 40.5196 64.8252 38.5828C64.0771 41.2671 62.9668 43.74 61.528 45.8675C58.5107 50.33 54.4169 52.7874 49.9999 52.7874C45.5826 52.7874 41.4882 50.33 38.4711 45.8675C37.0329 43.74 35.9223 41.2674 35.1743 38.5833C32.9095 40.5176 32.0296 42.5402 31.6943 43.9582H34.4397Z" fill="#FFA5A5"/>
<path id="Vector_3" d="M18.895 74.8971C19.1867 73.2944 20.3321 72.179 20.9581 71.6748H18.4034C17.7777 72.179 16.632 73.2944 16.3403 74.8971C16.0397 76.5488 16.6938 78.4308 18.2842 80.4914C24.4659 88.4999 25.1122 89.3369 25.1122 94.0019V95.7815H25.7427V89.7312C25.7424 89.7104 25.7044 87.7609 24.5404 85.362C23.6067 84.0773 22.3997 82.5134 20.8389 80.4914C19.2485 78.4311 18.5944 76.5488 18.895 74.8971Z" fill="white"/>
<path id="Vector_4" d="M83.6532 74.8617C83.3484 73.2626 82.2181 72.1675 81.6028 71.6748H77.4611C77.9558 72.3824 78.3785 73.1676 78.6797 74.0267C79.4117 76.1166 79.6859 79.3918 76.8334 83.129C74.3195 86.4236 74.2574 89.7039 74.2571 89.7368V95.7813H74.8876V94.0016C74.8876 89.3363 75.5339 88.4994 81.7156 80.4911C83.3177 78.4162 83.9696 76.5224 83.6532 74.8617Z" fill="#FFA5A5"/>
<path id="Vector_5" d="M29.0769 39.3065C29.3903 38.7721 29.7381 38.2586 30.118 37.7693C29.8093 37.9093 29.4974 38.0485 29.1832 38.1872C25.939 39.6215 24.613 42.1472 24.071 43.958H25.8771C26.2967 42.5558 27.191 40.7273 29.0769 39.3065ZM67.6698 48.1768H76.303V50.0309H67.6698V48.1768Z" fill="white"/>
<path id="Vector_6" d="M70.8162 38.1872C70.5042 38.0495 70.1929 37.9102 69.8823 37.7693C71.6678 40.0689 72.3478 42.3351 72.5919 43.9583H75.9298C75.3885 42.15 74.0627 39.6226 70.8162 38.1872Z" fill="#FFA5A5"/>
<path id="Vector_7" d="M43.5189 9.46485C43.5749 9.46907 43.63 9.46401 43.6854 9.46372C44.2273 9.13381 44.7924 8.84384 45.3765 8.59613C45.4813 8.45528 45.568 8.30185 45.6346 8.13941C46.4924 5.97816 48.4376 4.51548 50.7032 4.26182C50.4699 4.23431 50.2351 4.21985 50.0002 4.21851C47.4393 4.21851 45.1737 5.75768 44.2285 8.13941C44.063 8.55691 43.7685 8.91064 43.388 9.14906C43.0074 9.38748 42.5606 9.49812 42.1128 9.46485C42.1128 9.46485 38.7782 9.38442 38.6837 12.6523C38.6711 13.0913 38.7751 13.5179 38.943 13.9097C39.306 13.4143 39.6923 12.9364 40.1006 12.4777C40.3081 9.38976 43.5189 9.46485 43.5189 9.46485ZM52.6176 78.6606C54.9343 78.6606 56.8529 78.9672 58.3476 79.398C56.8636 78.5 54.0369 77.57 50.0002 77.57C43.792 77.57 40.4431 79.7695 40.4431 80.6692V81.4105H43.1899C43.8542 80.3916 47.1091 78.6606 52.6176 78.6606Z" fill="white"/>
<path id="Vector_8" d="M21.1094 59.335C19.2685 59.335 17.7712 60.8325 17.7712 62.6732V65.8055C17.7712 66.4045 17.9318 66.9653 18.2091 67.4518C18.2386 67.4527 18.2676 67.4563 18.2971 67.4563H34.6683V59.335H21.1094ZM26.2725 64.0422C25.8763 64.4365 25.3407 64.6587 24.7817 64.6606C24.2252 64.6606 23.6824 64.4356 23.2884 64.0422C22.8948 63.6457 22.6735 63.11 22.6725 62.5514C22.6725 61.9974 22.8977 61.4549 23.2884 61.0609C23.6852 60.6659 24.2219 60.4436 24.7817 60.4422C25.336 60.4422 25.8785 60.6674 26.2725 61.0609C26.6655 61.4576 26.8866 61.993 26.8881 62.5514C26.8872 63.11 26.666 63.6457 26.2725 64.0422Z" fill="#FFA5A5"/>
<path id="Vector_9" d="M24.782 60.4421C24.2222 60.4437 23.6855 60.666 23.2887 61.0608C22.896 61.4578 22.6749 61.993 22.6728 62.5514C22.6728 63.1082 22.898 63.651 23.2887 64.0422C23.6855 64.437 24.2222 64.6593 24.782 64.6606C25.3363 64.6606 25.8788 64.4356 26.2728 64.0422C26.6662 63.6456 26.8875 63.11 26.8884 62.5514C26.8884 61.9973 26.6634 61.452 26.2728 61.0608C25.8766 60.6665 25.341 60.4442 24.782 60.4421Z" fill="#DE4C90"/>
<path id="Vector_10" d="M81.7029 59.335H65.3317V67.4563H81.7029C83.5435 67.4563 85.0411 65.9588 85.0411 64.1181V62.6732C85.0411 60.8328 83.5435 59.335 81.7029 59.335ZM76.7111 64.0422C76.315 64.4365 75.7794 64.6588 75.2205 64.6606C74.664 64.6606 74.1209 64.4356 73.7272 64.0422C73.3328 63.6461 73.1105 63.1104 73.1085 62.5514C73.1085 61.9974 73.3363 61.4549 73.7272 61.0609C74.124 60.6659 74.6607 60.4435 75.2205 60.4422C75.7746 60.4422 76.3173 60.6674 76.7111 61.0609C77.1046 61.4575 77.3267 61.9927 77.3298 62.5514C77.3298 63.1082 77.1023 63.651 76.7111 64.0422Z" fill="#FFA5A5"/>
<path id="Vector_11" d="M75.2206 60.4421C74.664 60.4421 74.121 60.6674 73.7272 61.0608C73.3337 61.4575 73.1116 61.9927 73.1085 62.5514C73.1085 63.1082 73.3363 63.651 73.7272 64.0422C74.1241 64.4371 74.6607 64.6593 75.2206 64.6606C75.7746 64.6606 76.3174 64.4356 76.7111 64.0422C77.1055 63.646 77.3278 63.1104 77.3298 62.5514C77.3266 61.9927 77.1044 61.4576 76.7111 61.0608C76.3151 60.6664 75.7795 60.4441 75.2206 60.4421ZM50.0002 60.4421C49.4459 60.4421 48.9034 60.6674 48.5094 61.0608C48.1151 61.4569 47.8928 61.9925 47.8909 62.5514C47.8909 63.1082 48.1159 63.651 48.5094 64.0422C48.9052 64.4369 49.4411 64.6592 50.0002 64.6606C50.5593 64.6597 51.0953 64.4372 51.4906 64.0418C51.886 63.6465 52.1085 63.1105 52.1094 62.5514C52.1094 61.9973 51.8844 61.452 51.4907 61.0608C51.0949 60.6661 50.5592 60.4437 50.0002 60.4421Z" fill="#DE4C90"/>
<path id="Vector_12" d="M43.1899 81.41H59.5569V80.6687C59.5569 80.3543 59.1457 79.8804 58.3476 79.3975C56.8529 78.9667 54.9343 78.6602 52.6176 78.6602C47.1091 78.6604 43.8541 80.3914 43.1899 81.41Z" fill="#FFE09C"/>
<path id="Vector_13" d="M50.0004 73.3516C43.1547 73.3516 36.2249 75.8652 36.2249 80.6692V97.8908C36.2249 99.056 37.169 100 38.3342 100C38.8936 100 39.4301 99.7778 39.8256 99.3823C40.2212 98.9867 40.4434 98.4502 40.4434 97.8908V85.6287H59.5572V97.8908C59.5572 99.056 60.5013 100 61.6664 100C62.8315 100 63.7756 99.056 63.7756 97.8908V80.6692C63.7753 75.8652 56.8456 73.3516 50.0004 73.3516ZM40.4431 80.6692C40.4431 79.7698 43.792 77.57 50.0001 77.57C54.0366 77.57 56.8633 78.5 58.3476 79.398C59.1457 79.8809 59.5569 80.3545 59.5569 80.6692V81.4105H40.4431V80.6692Z" fill="#DE4C90"/>
<path id="Vector_14" d="M67.6698 48.1768H76.303V53.4296H67.6698V48.1768ZM75.9298 43.9583C75.3885 42.15 74.0628 39.6226 70.8162 38.1875C70.5042 38.0498 70.1929 37.9105 69.8823 37.7696C71.6678 40.0692 72.3478 42.3353 72.5919 43.9586L75.9298 43.9583ZM30.118 37.7693C29.8093 37.9093 29.4974 38.0485 29.1832 38.1872C25.939 39.6215 24.613 42.1472 24.071 43.958H27.4078C27.6525 42.3348 28.332 40.0689 30.118 37.7693ZM81.6028 71.6749H77.4611C77.9558 72.3825 78.3785 73.1677 78.6797 74.0268C79.4117 76.1167 79.6859 79.3919 76.8334 83.1291C74.3195 86.4237 74.2574 89.704 74.2571 89.7369V95.7814H74.8876V94.0018C74.8876 89.3364 75.5339 88.4995 81.7156 80.4912C83.3175 78.416 83.9694 76.5222 83.653 74.8615C83.3484 73.2627 82.2181 72.1676 81.6028 71.6749ZM68.3091 43.9583C67.9747 42.5451 67.0936 40.5197 64.8255 38.5829C64.0774 41.2672 62.9671 43.7401 61.5283 45.8676C58.511 50.3301 54.4172 52.7875 50.0002 52.7875C45.5829 52.7875 41.4885 50.3301 38.4714 45.8676C37.0332 43.7401 35.9226 41.2675 35.1746 38.5834C32.9098 40.5177 32.0298 42.5404 31.6946 43.9583H34.4397C35.6048 43.9583 36.5489 44.9024 36.5489 46.0675V53.4296H63.4511V46.0675C63.4511 44.9024 64.3952 43.9583 65.5603 43.9583H68.3091ZM38.8868 57.6477H61.1132V67.4565H38.8868V57.6477Z" fill="#FFA5A5"/>
<path id="Vector_15" d="M30.118 37.7691C29.8093 37.9091 29.4974 38.0483 29.1832 38.187C25.939 39.6212 24.613 42.147 24.071 43.9578H27.4078C27.6525 42.3345 28.332 40.0687 30.118 37.7691ZM44.769 46.5986C46.3861 47.8846 48.1702 48.5689 50.0004 48.5689C52.9728 48.5689 55.8258 46.7701 58.0338 43.5045C60.413 39.9854 61.7232 35.2675 61.7232 30.2197C61.7232 25.1717 60.413 20.4537 58.0338 16.935C57.7723 16.5478 57.494 16.1723 57.1996 15.8095C55.1295 13.259 52.6111 11.8706 50.0002 11.8706C47.0276 11.8706 44.1742 13.6694 41.9663 16.935C39.5871 20.454 38.2768 25.1717 38.2768 30.2197C38.2768 35.2675 39.5871 39.9857 41.9663 43.5045C42.815 44.7596 43.7597 45.7959 44.769 46.5986ZM75.9298 43.9581C75.3885 42.1498 74.0628 39.6224 70.8162 38.1873C70.5042 38.0496 70.1929 37.9103 69.8823 37.7693C71.6678 40.069 72.3478 42.3351 72.5919 43.9584L75.9298 43.9581ZM67.6698 48.1765H76.303V53.4293H67.6698V48.1765ZM81.6028 71.6747H77.4611C77.9558 72.3823 78.3785 73.1675 78.6797 74.0266C79.4117 76.1164 79.6859 79.3916 76.8334 83.1289C74.3195 86.4235 74.2574 89.7038 74.2571 89.7367V95.7812H74.8876V94.0015C74.8876 89.3362 75.5339 88.4993 81.7156 80.491C83.3175 78.4158 83.9694 76.522 83.653 74.8613C83.3484 73.2625 82.2181 72.1674 81.6028 71.6747Z" fill="#FFA5A5"/>
<path id="Vector_16" d="M68.3091 43.9582C67.9747 42.545 67.0936 40.5196 64.8255 38.5828C64.0774 41.2671 62.9671 43.74 61.5283 45.8675C58.511 50.33 54.4171 52.7874 50.0001 52.7874C45.5829 52.7874 41.4884 50.33 38.4714 45.8675C37.0332 43.74 35.9226 41.2674 35.1745 38.5833C32.9098 40.5176 32.0298 42.5402 31.6946 43.9582H34.4397C35.6048 43.9582 36.5489 44.9023 36.5489 46.0674V53.4295H63.4511V46.0674C63.4511 44.9023 64.3952 43.9582 65.5603 43.9582H68.3091ZM38.8868 57.6476H61.1132V67.4564H38.8868V57.6476Z" fill="#FFA5A5"/>
<path id="Vector_17" d="M40.1003 12.4776C41.2016 11.2424 42.4064 10.2362 43.6851 9.46366C43.6297 9.46395 43.5746 9.46873 43.5187 9.46479C43.5189 9.46479 40.3081 9.3897 40.1003 12.4776ZM45.6344 8.13935C45.5677 8.30179 45.481 8.45522 45.3762 8.59607C46.8518 7.9754 48.4045 7.65198 50.0002 7.65198C54.1922 7.65198 58.0914 9.86892 61.057 13.9091C61.2249 13.5173 61.3346 13.091 61.3163 12.652C61.1788 9.35905 57.8858 9.46451 57.8858 9.46451C57.4382 9.49757 56.9916 9.38684 56.6113 9.14843C56.2309 8.91002 55.9366 8.5564 55.7713 8.13907C54.9135 5.97782 52.968 4.51486 50.7027 4.26147C48.4371 4.51571 46.4921 5.97838 45.6344 8.13935Z" fill="#FFA5A5"/>
<path id="Vector_18" d="M29.0769 39.3063C29.3904 38.7719 29.7381 38.2584 30.118 37.7691C29.8093 37.9091 29.4974 38.0483 29.1832 38.187C25.939 39.6212 24.613 42.147 24.071 43.9578H25.8771C26.2967 42.5556 27.191 40.727 29.0769 39.3063ZM44.769 46.5986C46.3861 47.8846 48.1702 48.5689 50.0004 48.5689C52.9728 48.5689 55.8258 46.7701 58.0338 43.5045C60.413 39.9854 61.7232 35.2675 61.7232 30.2197C61.7232 25.1717 60.413 20.4537 58.0338 16.935C57.7723 16.5478 57.494 16.1723 57.1996 15.8095C55.1295 13.259 52.6111 11.8706 50.0002 11.8706C47.0276 11.8706 44.1742 13.6694 41.9663 16.935C39.5871 20.454 38.2768 25.1717 38.2768 30.2197C38.2768 35.2675 39.5871 39.9857 41.9663 43.5045C42.815 44.7596 43.7597 45.7959 44.769 46.5986Z" fill="#FFA5A5"/>
<path id="Vector_19" d="M40.1003 12.4777C41.2016 11.2425 42.4064 10.2363 43.6851 9.46376C44.227 9.13385 44.7921 8.84388 45.3762 8.59617C46.8518 7.97549 48.4044 7.65208 50.0001 7.65208C54.1922 7.65208 58.0914 9.86901 61.057 13.9092C61.2249 13.5174 61.3346 13.0911 61.3163 12.6521C61.1788 9.35914 57.8858 9.4646 57.8858 9.4646C57.4382 9.49767 56.9916 9.38693 56.6113 9.14853C56.2309 8.91012 55.9366 8.55649 55.7713 8.13917C54.9135 5.97792 52.968 4.51496 50.7027 4.26157C50.4694 4.23408 50.2348 4.21962 49.9999 4.21826C47.439 4.21826 45.1734 5.75743 44.2282 8.13917C44.0627 8.55666 43.7683 8.9104 43.3877 9.14882C43.0071 9.38724 42.5603 9.49787 42.1125 9.4646C42.1122 9.4646 38.7779 9.38417 38.6835 12.6521C38.6708 13.0911 38.7749 13.5177 38.9428 13.9094C39.3058 13.4142 39.6921 12.9364 40.1003 12.4777ZM67.6698 48.1767H76.303V53.4296H67.6698V48.1767ZM75.9298 43.9583C75.3885 42.15 74.0627 39.6226 70.8162 38.1875C70.5042 38.0498 70.1928 37.9105 69.8823 37.7695C71.6678 40.0692 72.3478 42.3353 72.5919 43.9586L75.9298 43.9583ZM68.3091 43.9583C67.9747 42.5451 67.0936 40.5197 64.8255 38.5829C64.0774 41.2672 62.9671 43.7401 61.5283 45.8676C58.511 50.3301 54.4171 52.7875 50.0001 52.7875C45.5829 52.7875 41.4884 50.3301 38.4714 45.8676C37.0332 43.7401 35.9226 41.2675 35.1745 38.5834C32.9098 40.5177 32.0298 42.5403 31.6946 43.9583H34.4397C35.6048 43.9583 36.5489 44.9024 36.5489 46.0675V53.4296H63.4511V46.0675C63.4511 44.9024 64.3952 43.9583 65.5603 43.9583H68.3091ZM81.6028 71.6749H77.4611C77.9558 72.3825 78.3785 73.1677 78.6797 74.0268C79.4117 76.1166 79.6859 79.3918 76.8334 83.1291C74.3195 86.4237 74.2574 89.704 74.2571 89.7369V95.7814H74.8876V94.0017C74.8876 89.3364 75.5339 88.4995 81.7156 80.4912C83.3175 78.416 83.9693 76.5222 83.653 74.8615C83.3484 73.2627 82.2181 72.1676 81.6028 71.6749ZM38.8868 57.6477H61.1132V67.4565H38.8868V57.6477Z" fill="#FFA5A5"/>
<path id="Vector_20" d="M25.7491 49.6543H32.3305V53.4295H25.7491V49.6543ZM25.8771 43.9583H27.4078C27.5974 42.6992 28.051 41.054 29.0769 39.3062L29.0767 39.3064C27.191 40.7272 26.2967 42.5558 25.8771 43.9583Z" fill="#FFA5A5"/>
<path id="Vector_21" d="M40.1003 12.4777C41.2016 11.2425 42.4064 10.2363 43.6851 9.46376C44.227 9.13385 44.7922 8.84388 45.3762 8.59617C46.8518 7.97549 48.4045 7.65208 50.0002 7.65208C54.1922 7.65208 58.0914 9.86901 61.057 13.9092C61.2249 13.5174 61.3346 13.0911 61.3163 12.6521C61.1788 9.35914 57.8858 9.4646 57.8858 9.4646C57.4382 9.49767 56.9916 9.38693 56.6113 9.14853C56.2309 8.91012 55.9366 8.55649 55.7713 8.13917C54.9135 5.97792 52.968 4.51496 50.7027 4.26157C50.4694 4.23408 50.2348 4.21962 49.9999 4.21826C47.439 4.21826 45.1734 5.75743 44.2282 8.13917C44.0627 8.55666 43.7683 8.9104 43.3877 9.14882C43.0071 9.38724 42.5604 9.49787 42.1125 9.4646C42.1122 9.4646 38.778 9.38417 38.6835 12.6521C38.6708 13.0911 38.7749 13.5177 38.9428 13.9094C39.3058 13.4142 39.6921 12.9364 40.1003 12.4777ZM27.4081 43.9583C27.5977 42.6992 28.0513 41.054 29.0772 39.3062C29.3906 38.7719 29.7383 38.2586 30.118 37.7693C29.8093 37.9093 29.4974 38.0485 29.1832 38.1872C25.939 39.6214 24.613 42.1472 24.071 43.958H27.4081V43.9583Z" fill="#FFA5A5"/>
<path id="Vector_22" d="M44.769 46.5986C46.3861 47.8846 48.1702 48.5689 50.0005 48.5689C52.9728 48.5689 55.8258 46.7701 58.0338 43.5045C60.413 39.9854 61.7232 35.2675 61.7232 30.2197C61.7232 25.1717 60.413 20.4537 58.0338 16.935C57.7724 16.5478 57.4941 16.1723 57.1997 15.8095C55.1295 13.259 52.6111 11.8706 50.0002 11.8706C47.0276 11.8706 44.1742 13.6694 41.9663 16.935C39.5871 20.454 38.2768 25.1717 38.2768 30.2197C38.2768 35.2675 39.5871 39.9857 41.9663 43.5045C42.815 44.7596 43.7597 45.7959 44.769 46.5986ZM67.6698 48.1765H76.303V53.4293H67.6698V48.1765ZM75.9299 43.9581C75.3885 42.1498 74.0628 39.6224 70.8162 38.1873C70.5042 38.0496 70.1929 37.9103 69.8823 37.7693C71.6678 40.069 72.3478 42.3351 72.5919 43.9584L75.9299 43.9581ZM32.3305 53.4291V48.1765H23.697V53.4291H25.7492H32.3305ZM38.8868 57.6475H61.1133V67.4562H38.8868V57.6475Z" fill="#FFA5A5"/>
<path id="Vector_23" d="M68.3091 43.9583C67.9747 42.5451 67.0936 40.5197 64.8255 38.5829C64.0774 41.2672 62.9671 43.7401 61.5283 45.8676C58.511 50.3301 54.4172 52.7875 50.0002 52.7875C45.5829 52.7875 41.4885 50.3301 38.4714 45.8676C37.0332 43.7401 35.9226 41.2675 35.1746 38.5834C32.9098 40.5177 32.0298 42.5404 31.6946 43.9583H34.4397C35.6048 43.9583 36.5489 44.9024 36.5489 46.0675V53.4296H63.4511V46.0675C63.4511 44.9024 64.3952 43.9583 65.5603 43.9583H68.3091ZM81.6028 71.6749H77.4611C77.9558 72.3825 78.3785 73.1677 78.6797 74.0268C79.4117 76.1167 79.6859 79.3919 76.8334 83.1291C74.3195 86.4237 74.2574 89.704 74.2571 89.7369V95.7814H74.8876V94.0018C74.8876 89.3364 75.5339 88.4995 81.7156 80.4912C83.3175 78.416 83.9694 76.5222 83.653 74.8615C83.3484 73.2627 82.2181 72.1676 81.6028 71.6749ZM27.4081 43.9583C27.5977 42.6992 28.0513 41.0541 29.0772 39.3062C29.3906 38.772 29.7383 38.2586 30.118 37.7693C29.8093 37.9093 29.4974 38.0485 29.1832 38.1872C25.939 39.6215 24.613 42.1472 24.071 43.958H27.4081V43.9583Z" fill="#FFA5A5"/>
<path id="Vector_24" d="M44.769 46.5986C46.3861 47.8846 48.1702 48.5689 50.0005 48.5689C52.9728 48.5689 55.8258 46.7701 58.0338 43.5045C60.413 39.9854 61.7232 35.2675 61.7232 30.2197C61.7232 25.1717 60.413 20.4537 58.0338 16.935C57.7724 16.5478 57.4941 16.1723 57.1997 15.8095C55.1295 13.259 52.6111 11.8706 50.0002 11.8706C47.0276 11.8706 44.1742 13.6694 41.9663 16.935C39.5871 20.454 38.2768 25.1717 38.2768 30.2197C38.2768 35.2675 39.5871 39.9857 41.9663 43.5045C42.815 44.7596 43.7597 45.7959 44.769 46.5986ZM32.3305 53.4291V48.1765H23.697V53.4291H25.7492H32.3305Z" fill="#FFA5A5"/>
<path id="Vector_25" d="M40.1003 12.4777C41.2016 11.2425 42.4064 10.2363 43.6851 9.46376C44.227 9.13385 44.7922 8.84388 45.3762 8.59617C46.8518 7.97549 48.4045 7.65208 50.0002 7.65208C54.1922 7.65208 58.0914 9.86901 61.057 13.9092C61.2249 13.5174 61.3346 13.0911 61.3163 12.6521C61.1788 9.35914 57.8858 9.4646 57.8858 9.4646C57.4382 9.49767 56.9916 9.38693 56.6113 9.14853C56.2309 8.91012 55.9366 8.55649 55.7713 8.13917C54.9135 5.97792 52.968 4.51496 50.7027 4.26157C50.4694 4.23408 50.2348 4.21962 49.9999 4.21826C47.439 4.21826 45.1734 5.75743 44.2282 8.13917C44.0627 8.55666 43.7683 8.9104 43.3877 9.14882C43.0071 9.38724 42.5604 9.49787 42.1125 9.4646C42.1122 9.4646 38.778 9.38417 38.6835 12.6521C38.6708 13.0911 38.7749 13.5177 38.9428 13.9094C39.3058 13.4142 39.6921 12.9364 40.1003 12.4777ZM75.9298 43.9583C75.3885 42.15 74.0628 39.6226 70.8162 38.1875C70.5042 38.0498 70.1929 37.9105 69.8823 37.7695C71.6678 40.0692 72.3478 42.3353 72.5919 43.9586L75.9298 43.9583ZM67.6698 48.1767H76.303V53.4296H67.6698V48.1767ZM81.6028 71.6749H77.4611C77.9558 72.3825 78.3785 73.1677 78.6797 74.0268C79.4117 76.1166 79.6859 79.3918 76.8334 83.1291C74.3195 86.4237 74.2574 89.704 74.2571 89.7369V95.7814H74.8876V94.0017C74.8876 89.3364 75.5339 88.4995 81.7156 80.4912C83.3175 78.416 83.9694 76.5222 83.653 74.8615C83.3484 73.2627 82.2181 72.1676 81.6028 71.6749ZM68.3091 43.9583C67.9747 42.5451 67.0936 40.5197 64.8255 38.5829C64.0774 41.2672 62.9671 43.7401 61.5283 45.8676C58.511 50.3301 54.4172 52.7875 50.0002 52.7875C45.5829 52.7875 41.4885 50.3301 38.4714 45.8676C37.0332 43.7401 35.9226 41.2675 35.1746 38.5834C32.9098 40.5177 32.0299 42.5403 31.6946 43.9583H34.4397C35.6049 43.9583 36.5489 44.9024 36.5489 46.0675V53.4296H63.4511V46.0675C63.4511 44.9024 64.3952 43.9583 65.5603 43.9583H68.3091ZM14.9589 60.9862V64.1185C14.9589 65.9294 16.4089 67.405 18.2091 67.4522C18.2386 67.4531 18.2676 67.4567 18.2971 67.4567H34.6684V57.648H18.2971C16.4562 57.6477 14.9589 59.1455 14.9589 60.9862ZM38.8868 57.6477H61.1132V67.4565H38.8868V57.6477Z" fill="#FFA5A5"/>
<path id="Vector_26" d="M18.895 74.8971C18.5944 76.5488 19.2485 78.4308 20.8389 80.4913C22.3997 82.5134 23.6067 84.0773 24.5404 85.3619L24.5407 85.3622C24.1583 84.5738 23.6978 83.8257 23.1661 83.1293C20.3138 79.392 20.5883 76.1165 21.3203 74.0267C21.6213 73.1675 22.0434 72.3823 22.5378 71.675H20.9578C20.3321 72.179 19.1866 73.2944 18.895 74.8971Z" fill="#FFA5A5"/>
<path id="Vector_27" d="M14.9589 60.986V64.1183C14.9589 65.9292 16.4089 67.4048 18.2091 67.452C18.2386 67.4529 18.2676 67.4565 18.2971 67.4565H34.6684V57.6478H18.2971C16.4562 57.6475 14.9589 59.1453 14.9589 60.986ZM23.1663 83.1292C20.3141 79.3919 20.5886 76.1164 21.3206 74.0266C21.6215 73.1675 22.0437 72.3823 22.5381 71.675H18.4034C17.7777 72.1792 16.632 73.2946 16.3403 74.8973C16.0397 76.549 16.6938 78.431 18.2842 80.4915C24.4659 88.5001 25.1122 89.3371 25.1122 94.0021V95.7817H25.7427V89.7313C25.7424 89.7105 25.7044 87.7613 24.5407 85.3624C24.1584 84.5739 23.698 83.8258 23.1663 83.1292ZM32.3305 53.4291V48.1765H23.697V53.4291H25.7491H32.3305ZM44.769 46.5986C46.3861 47.8846 48.1702 48.5689 50.0004 48.5689C52.9728 48.5689 55.8258 46.7701 58.0338 43.5045C60.413 39.9854 61.7232 35.2675 61.7232 30.2197C61.7232 25.1717 60.413 20.4537 58.0338 16.935C57.7724 16.5478 57.494 16.1723 57.1996 15.8095C55.1295 13.259 52.6111 11.8706 50.0002 11.8706C47.0276 11.8706 44.1742 13.6694 41.9663 16.935C39.5871 20.454 38.2768 25.1717 38.2768 30.2197C38.2768 35.2675 39.5871 39.9857 41.9663 43.5045C42.815 44.7596 43.7597 45.7959 44.769 46.5986ZM27.4081 43.9581C27.5977 42.699 28.0513 41.0538 29.0772 39.306C29.3906 38.7717 29.7383 38.2584 30.1181 37.7691C29.8093 37.9091 29.4974 38.0483 29.1832 38.187C25.939 39.6212 24.613 42.147 24.0711 43.9578H27.4081V43.9581ZM75.9298 43.9581C75.3885 42.1498 74.0628 39.6224 70.8162 38.1873C70.5042 38.0496 70.1929 37.9103 69.8823 37.7693C71.6678 40.069 72.3478 42.3351 72.5919 43.9584L75.9298 43.9581Z" fill="#FFA5A5"/>
<path id="Vector_28" d="M40.1003 12.4777C41.2016 11.2425 42.4064 10.2363 43.6851 9.46376C44.227 9.13385 44.7921 8.84388 45.3762 8.59617C46.8518 7.97549 48.4044 7.65208 50.0001 7.65208C54.1922 7.65208 58.0914 9.86901 61.057 13.9092C61.2249 13.5174 61.3346 13.0911 61.3163 12.6521C61.1788 9.35914 57.8858 9.4646 57.8858 9.4646C57.4382 9.49767 56.9916 9.38693 56.6113 9.14853C56.2309 8.91012 55.9366 8.55649 55.7713 8.13917C54.9135 5.97792 52.968 4.51496 50.7027 4.26157C50.4694 4.23408 50.2348 4.21962 49.9999 4.21826C47.439 4.21826 45.1734 5.75743 44.2282 8.13917C44.0627 8.55666 43.7683 8.9104 43.3877 9.14882C43.0071 9.38724 42.5603 9.49787 42.1125 9.4646C42.1122 9.4646 38.7779 9.38417 38.6835 12.6521C38.6708 13.0911 38.7749 13.5177 38.9428 13.9094C39.3058 13.4142 39.6921 12.9364 40.1003 12.4777ZM67.6698 48.1767H76.303V53.4296H67.6698V48.1767ZM81.6028 71.6749H77.4611C77.9558 72.3825 78.3785 73.1677 78.6797 74.0268C79.4117 76.1166 79.6859 79.3918 76.8334 83.1291C74.3195 86.4237 74.2574 89.704 74.2571 89.7369V95.7814H74.8876V94.0017C74.8876 89.3364 75.5339 88.4995 81.7156 80.4912C83.3175 78.416 83.9693 76.5222 83.653 74.8615C83.3484 73.2627 82.2181 72.1676 81.6028 71.6749ZM38.8868 57.6477H61.1132V59.3351H38.8868V57.6477ZM68.3091 43.9583C67.9747 42.5451 67.0936 40.5197 64.8255 38.5829C64.0774 41.2672 62.9671 43.7401 61.5283 45.8676C58.511 50.3301 54.4171 52.7875 50.0001 52.7875C45.5829 52.7875 41.4884 50.3301 38.4714 45.8676C37.0332 43.7401 35.9226 41.2675 35.1745 38.5834C32.9098 40.5177 32.0298 42.5403 31.6946 43.9583H34.4397C35.6048 43.9583 36.5489 44.9024 36.5489 46.0675V53.4296H63.4511V46.0675C63.4511 44.9024 64.3952 43.9583 65.5603 43.9583H68.3091ZM50.0001 64.6607C50.5593 64.6599 51.0952 64.4373 51.4906 64.042C51.886 63.6466 52.1085 63.1106 52.1094 62.5515C52.1094 61.9975 51.8844 61.4522 51.4907 61.061C51.0949 60.6662 50.5592 60.4438 50.0001 60.4423C49.4458 60.4423 48.9034 60.6676 48.5093 61.061C48.1151 61.4571 47.8928 61.9927 47.8909 62.5515C47.8909 63.1084 48.1159 63.6511 48.5093 64.0423C48.9052 64.4371 49.4411 64.6595 50.0001 64.6607Z" fill="#FFA5A5"/>
<path id="Vector_29" d="M38.8868 67.4563H61.1132V59.335H38.8868V67.4563ZM48.5093 61.0609C48.9055 60.6664 49.4411 60.4441 50.0001 60.4422C50.5542 60.4422 51.0998 60.6674 51.4907 61.0609C51.8855 61.4566 52.108 61.9924 52.1094 62.5514C52.1084 63.1105 51.8859 63.6464 51.4905 64.0418C51.0952 64.4371 50.5592 64.6596 50.0001 64.6606C49.4458 64.6606 48.9005 64.4356 48.5093 64.0422C48.1141 63.6466 47.8918 63.1106 47.8909 62.5514C47.8909 61.9974 48.1156 61.4546 48.5093 61.0609Z" fill="#FFA5A5"/>
<path id="Vector_30" d="M27.4081 43.9581C27.5977 42.699 28.0513 41.0538 29.0772 39.306C29.3906 38.7717 29.7383 38.2584 30.1181 37.7691C29.8093 37.9091 29.4974 38.0483 29.1832 38.187C25.939 39.6212 24.613 42.147 24.0711 43.9578H27.4081V43.9581ZM44.769 46.5986C46.3861 47.8846 48.1702 48.5689 50.0005 48.5689C52.9728 48.5689 55.8258 46.7701 58.0338 43.5045C60.413 39.9854 61.7232 35.2675 61.7232 30.2197C61.7232 25.1717 60.413 20.4537 58.0338 16.935C57.7724 16.5478 57.494 16.1723 57.1996 15.8095C55.1295 13.259 52.6111 11.8706 50.0002 11.8706C47.0276 11.8706 44.1742 13.6694 41.9663 16.935C39.5871 20.454 38.2768 25.1717 38.2768 30.2197C38.2768 35.2675 39.5871 39.9857 41.9663 43.5045C42.815 44.7596 43.7597 45.7959 44.769 46.5986ZM32.3305 53.4291V48.1765H23.697V53.4291H25.7492H32.3305ZM67.6698 48.1765H76.303V53.4293H67.6698V48.1765ZM75.9298 43.9581C75.3885 42.1498 74.0628 39.6224 70.8162 38.1873C70.5042 38.0496 70.1929 37.9103 69.8823 37.7693C71.6678 40.069 72.3478 42.3351 72.5919 43.9584L75.9298 43.9581ZM23.1663 83.1292C20.3141 79.3919 20.5886 76.1164 21.3206 74.0266C21.6215 73.1675 22.0437 72.3823 22.5381 71.675H18.4034C17.7777 72.1792 16.632 73.2946 16.3403 74.8973C16.0397 76.549 16.6938 78.431 18.2842 80.4915C24.4659 88.5001 25.1122 89.3371 25.1122 94.0021V95.7817H25.7427V89.7313C25.7424 89.7105 25.7044 87.7613 24.5407 85.3624C24.1584 84.5739 23.698 83.8258 23.1663 83.1292Z" fill="#FFA5A5"/>
<path id="Vector_31" d="M40.1003 12.4777C41.2016 11.2425 42.4064 10.2363 43.6851 9.46376C44.227 9.13385 44.7922 8.84388 45.3762 8.59617C46.8518 7.97549 48.4045 7.65208 50.0002 7.65208C54.1922 7.65208 58.0914 9.86901 61.057 13.9092C61.2249 13.5174 61.3346 13.0911 61.3163 12.6521C61.1788 9.35914 57.8858 9.4646 57.8858 9.4646C57.4382 9.49767 56.9916 9.38693 56.6113 9.14853C56.2309 8.91012 55.9366 8.55649 55.7713 8.13917C54.9135 5.97792 52.968 4.51496 50.7027 4.26157C50.4694 4.23408 50.2348 4.21962 49.9999 4.21826C47.439 4.21826 45.1734 5.75743 44.2282 8.13917C44.0627 8.55666 43.7683 8.9104 43.3877 9.14882C43.0071 9.38724 42.5604 9.49787 42.1125 9.4646C42.1122 9.4646 38.778 9.38417 38.6835 12.6521C38.6708 13.0911 38.7749 13.5177 38.9428 13.9094C39.3058 13.4142 39.6921 12.9364 40.1003 12.4777ZM81.6028 71.6749H77.4611C77.9558 72.3825 78.3785 73.1677 78.6797 74.0268C79.4117 76.1166 79.6859 79.3918 76.8334 83.1291C74.3195 86.4237 74.2574 89.704 74.2571 89.7369V95.7814H74.8876V94.0017C74.8876 89.3364 75.5339 88.4995 81.7156 80.4912C83.3175 78.416 83.9694 76.5222 83.653 74.8615C83.3484 73.2627 82.2181 72.1676 81.6028 71.6749ZM38.8868 59.3351V67.4565H61.1132V57.6477H38.8868V59.3351ZM68.3091 43.9583C67.9747 42.5451 67.0936 40.5197 64.8255 38.5829C64.0774 41.2672 62.9671 43.7401 61.5283 45.8676C58.511 50.3301 54.4172 52.7875 50.0002 52.7875C45.5829 52.7875 41.4885 50.3301 38.4714 45.8676C37.0332 43.7401 35.9226 41.2675 35.1746 38.5834C32.9098 40.5177 32.0299 42.5403 31.6946 43.9583H34.4397C35.6049 43.9583 36.5489 44.9024 36.5489 46.0675V53.4296H63.4511V46.0675C63.4511 44.9024 64.3952 43.9583 65.5603 43.9583H68.3091ZM14.9589 60.9862V64.1185C14.9589 65.9294 16.4089 67.405 18.2091 67.4522C18.2386 67.4531 18.2676 67.4567 18.2971 67.4567H34.6684V57.648H18.2971C16.4562 57.6477 14.9589 59.1455 14.9589 60.9862Z" fill="#FFA5A5"/>
<path id="Vector_32" d="M44.769 46.5986C46.3861 47.8846 48.1702 48.5689 50.0005 48.5689C52.9728 48.5689 55.8258 46.7701 58.0338 43.5045C60.413 39.9854 61.7232 35.2675 61.7232 30.2197C61.7232 25.1717 60.413 20.4537 58.0338 16.935C57.7724 16.5478 57.4941 16.1723 57.1997 15.8095C55.1295 13.259 52.6111 11.8706 50.0002 11.8706C47.0276 11.8706 44.1742 13.6694 41.9663 16.935C39.5871 20.454 38.2768 25.1717 38.2768 30.2197C38.2768 35.2675 39.5871 39.9857 41.9663 43.5045C42.815 44.7596 43.7597 45.7959 44.769 46.5986ZM27.4081 43.9581C27.5977 42.699 28.0513 41.0538 29.0772 39.306C29.3906 38.7717 29.7383 38.2584 30.1181 37.7691C29.8093 37.9091 29.4974 38.0483 29.1833 38.187C25.939 39.6212 24.613 42.147 24.0711 43.9578H27.4081V43.9581ZM32.3305 53.4291V48.1765H23.697V53.4291H25.7492H32.3305Z" fill="#FFA5A5"/>
<path id="Vector_33" d="M40.1003 12.4777C41.2016 11.2425 42.4064 10.2363 43.6851 9.46376C44.227 9.13385 44.7922 8.84388 45.3762 8.59617C46.8518 7.97549 48.4045 7.65208 50.0002 7.65208C54.1922 7.65208 58.0914 9.86901 61.057 13.9092C61.2249 13.5174 61.3346 13.0911 61.3163 12.6521C61.1788 9.35914 57.8858 9.4646 57.8858 9.4646C57.4382 9.49767 56.9916 9.38693 56.6113 9.14853C56.2309 8.91012 55.9366 8.55649 55.7713 8.13917C54.9135 5.97792 52.968 4.51496 50.7027 4.26157C50.4694 4.23408 50.2348 4.21962 49.9999 4.21826C47.439 4.21826 45.1734 5.75743 44.2282 8.13917C44.0627 8.55666 43.7683 8.9104 43.3877 9.14882C43.0071 9.38724 42.5604 9.49787 42.1125 9.4646C42.1122 9.4646 38.778 9.38417 38.6835 12.6521C38.6708 13.0911 38.7749 13.5177 38.9428 13.9094C39.3058 13.4142 39.6921 12.9364 40.1003 12.4777ZM75.9298 43.9583C75.3885 42.15 74.0628 39.6226 70.8162 38.1875C70.5042 38.0498 70.1929 37.9105 69.8823 37.7695C71.6678 40.0692 72.3478 42.3353 72.5919 43.9586L75.9298 43.9583ZM67.6698 48.1767H76.303V50.0309H67.6698V48.1767ZM81.7029 57.6477H65.3317V67.4565H81.7029C83.5436 67.4565 85.0411 65.9589 85.0411 64.1183V60.9859C85.0411 59.1456 83.5436 57.6477 81.7029 57.6477ZM23.1663 83.1294C20.3141 79.3921 20.5886 76.1167 21.3206 74.0268C21.6215 73.1677 22.0437 72.3825 22.5381 71.6752H18.4034C17.7777 72.1794 16.632 73.2948 16.3403 74.8975C16.0397 76.5492 16.6938 78.4312 18.2842 80.4918C24.4659 88.5003 25.1122 89.3373 25.1122 94.0023V95.7819H25.7427V89.7316C25.7424 89.7107 25.7044 87.7615 24.5407 85.3626C24.1584 84.5741 23.698 83.826 23.1663 83.1294ZM68.3091 43.9583C67.9747 42.5451 67.0936 40.5197 64.8255 38.5829C64.0774 41.2672 62.9671 43.7401 61.5283 45.8676C58.511 50.3301 54.4172 52.7875 50.0002 52.7875C45.5829 52.7875 41.4885 50.3301 38.4714 45.8676C37.0332 43.7401 35.9226 41.2675 35.1746 38.5834C32.9098 40.5177 32.0299 42.5403 31.6946 43.9583H34.4397C35.6049 43.9583 36.5489 44.9024 36.5489 46.0675V53.4296H63.4511V46.0675C63.4511 44.9024 64.3952 43.9583 65.5603 43.9583H68.3091ZM81.6028 71.6749H77.4611C77.9558 72.3825 78.3785 73.1677 78.6797 74.0268C79.4117 76.1167 79.6859 79.3919 76.8334 83.1291C74.3195 86.4237 74.2574 89.704 74.2571 89.7369V95.7814H74.8876V94.0018C74.8876 89.3364 75.5339 88.4995 81.7156 80.4912C83.3175 78.416 83.9694 76.5222 83.653 74.8615C83.3484 73.2627 82.2181 72.1676 81.6028 71.6749ZM38.8868 59.3351V67.4565H61.1132V57.6477H38.8868V59.3351ZM14.9589 60.9862V64.1185C14.9589 65.9294 16.4089 67.405 18.2091 67.4522C18.2386 67.4531 18.2676 67.4567 18.2971 67.4567H34.6684V57.648H18.2971C16.4562 57.6477 14.9589 59.1456 14.9589 60.9862Z" fill="#FFA5A5"/>
<path id="Vector_34" d="M67.6698 50.0305H76.303V53.4292H67.6698V50.0305Z" fill="#FFA5A5"/>
<path id="Vector_35" d="M89.2596 64.1182V60.9858C89.2596 56.8191 85.8696 53.4292 81.7029 53.4292H80.5215V46.0671L80.5212 46.0652L80.5215 46.0629C80.5206 45.7271 80.4118 37.8164 72.5219 34.3286C70.8964 33.6098 65.9498 31.4235 65.9622 29.9878C65.9633 29.87 65.4211 21.6013 63.3774 17.8783C64.7578 16.4889 65.5334 14.6103 65.5353 12.6517C65.5353 8.88686 62.7165 5.76774 59.0788 5.29443C57.2472 2.03779 53.8195 0 50.0001 0C46.1808 0 42.7526 2.03779 40.9215 5.295C37.2835 5.76859 34.4653 8.88743 34.4653 12.6522C34.4653 14.6344 35.2623 16.5071 36.6229 17.8795C34.3919 22.4922 34.0499 29.8745 34.0463 29.9999C34.0038 31.4353 29.1039 33.6103 27.4784 34.3292C19.5882 37.8167 19.48 45.7274 19.4791 46.0626V53.4297H18.2977C14.131 53.4297 10.741 56.8197 10.741 60.9864V64.1187C10.741 66.6582 12.0012 68.9075 13.9282 70.2782C13.1827 71.2606 12.4982 72.5261 12.2034 74.0729C11.6514 76.9706 12.5738 79.9972 14.9454 83.0694C20.8943 90.7759 20.8943 90.8364 20.8943 94.0022V97.8911C20.8943 99.0562 21.8384 100 23.0035 100H27.8525C28.4119 100 28.9483 99.7781 29.3439 99.3825C29.7395 98.9869 29.9617 98.4505 29.9617 97.8911V89.741C29.9625 89.5517 29.9428 85.0554 26.5203 80.5707C25.1268 78.7444 24.7283 77.0604 25.3023 75.4219C26.0208 73.3715 28.0128 72.0078 28.9 71.6754H71.1008C71.9881 72.0081 73.9806 73.3715 74.6992 75.4222C75.2732 77.0601 74.8747 78.7441 73.4809 80.5707C70.0583 85.0554 70.0386 89.552 70.0395 89.7317V97.8913C70.0395 99.0565 70.9836 100.001 72.1487 100.001H76.9977C78.1628 100.001 79.1069 99.0565 79.1069 97.8913V94.0025C79.1069 90.8364 79.1069 90.7759 85.0555 83.0697C87.4274 79.9975 88.3498 76.9709 87.7977 74.0731C87.503 72.5261 86.8185 71.2608 86.0727 70.2788C87.9991 68.9069 89.2596 66.6577 89.2596 64.1182ZM67.6698 53.4292V48.1764H76.303V53.4292H67.6698ZM70.8162 38.1871C74.0627 39.6225 75.3885 42.1499 75.9298 43.9579H72.5919C72.3478 42.3349 71.6678 40.0685 69.8823 37.7689C70.1905 37.9092 70.5024 38.0484 70.8162 38.1871ZM42.1128 9.46479C42.5606 9.49801 43.0074 9.38736 43.3879 9.14895C43.7685 8.91053 44.063 8.55682 44.2285 8.13935C45.1734 5.75762 47.439 4.21845 50.0001 4.21845C50.2378 4.21845 50.4712 4.23588 50.7029 4.26176C52.9685 4.51515 54.9141 5.9781 55.7715 8.13935C55.9369 8.55668 56.2312 8.9103 56.6116 9.14871C56.9919 9.38712 57.4384 9.49786 57.8861 9.46479C57.8861 9.46479 61.179 9.35933 61.3166 12.6522C61.3348 13.0912 61.2252 13.5176 61.0573 13.9093C58.0917 9.8692 54.1924 7.65226 50.0004 7.65226C48.4047 7.65226 46.8521 7.9754 45.3765 8.59635C44.7924 8.84407 44.2273 9.13403 43.6854 9.46395C42.4067 10.2365 41.2019 11.2424 40.1006 12.4779C39.6923 12.9366 39.306 13.4145 38.943 13.9099C38.7751 13.5184 38.6711 13.0915 38.6837 12.6525C38.778 9.38436 42.1125 9.46479 42.1128 9.46479ZM41.9663 16.9351C44.1745 13.6695 47.0275 11.8707 50.0001 11.8707C52.6108 11.8707 55.1292 13.2591 57.1996 15.8096C57.494 16.1724 57.7723 16.5479 58.0338 16.9351C60.413 20.4541 61.7232 25.1718 61.7232 30.2198C61.7232 35.2676 60.413 39.9858 58.0338 43.5046C55.8256 46.7702 52.9728 48.569 50.0004 48.569C48.1702 48.569 46.3861 47.8847 44.769 46.5987C43.7597 45.7957 42.815 44.7597 41.9663 43.5046C39.5871 39.9855 38.2768 35.2676 38.2768 30.2198C38.2768 25.1718 39.5871 20.4538 41.9663 16.9351ZM29.1832 38.1871C29.4974 38.0484 29.8095 37.9092 30.118 37.7692C29.7382 38.2584 29.3905 38.7718 29.0772 39.3061C28.0513 41.0539 27.5974 42.6991 27.4081 43.9582H24.0713C24.613 42.1471 25.939 39.6213 29.1832 38.1871ZM23.697 48.1766H32.3305V53.4295H23.697V48.1766ZM25.743 89.7312V95.7815H25.1124V94.0019C25.1124 89.3369 24.4662 88.4999 18.2845 80.4914C16.6941 78.4311 16.04 76.5488 16.3406 74.8971C16.6322 73.2944 17.7777 72.179 18.4037 71.6748H22.5383C22.0439 72.3824 21.6218 73.1676 21.3209 74.0264C20.5889 76.1163 20.3144 79.3918 23.1666 83.129C23.6982 83.8256 24.1587 84.5736 24.5413 85.362C25.7047 87.7612 25.7427 89.7104 25.743 89.7312ZM34.6683 59.335V67.4564H18.2971C18.2676 67.4564 18.2386 67.4527 18.2091 67.4519C16.4092 67.4043 14.9589 65.929 14.9589 64.1182V60.9858C14.9589 59.1452 16.4562 57.6476 18.2971 57.6476H34.6683V59.335ZM61.1132 59.335V67.4564H38.8868V57.6476H61.1132V59.335ZM63.4514 46.0674V53.4295H36.5492V46.0674C36.5492 44.9023 35.6051 43.9582 34.44 43.9582H31.6949C32.0301 42.5402 32.9101 40.5176 35.1748 38.5833C35.9226 41.2674 37.0332 43.74 38.4717 45.8675C41.489 50.33 45.5832 52.7874 50.0004 52.7874C54.4174 52.7874 58.5116 50.33 61.5286 45.8675C62.9671 43.74 64.0774 41.2671 64.8257 38.5828C67.0936 40.5196 67.975 42.545 68.3093 43.9582H65.5609C65.2839 43.9582 65.0096 44.0127 64.7536 44.1187C64.4977 44.2246 64.2651 44.38 64.0693 44.5759C63.8734 44.7717 63.718 45.0043 63.612 45.2602C63.5059 45.5161 63.4514 45.7904 63.4514 46.0674ZM81.7159 80.4914C75.5339 88.4997 74.8879 89.3366 74.8879 94.0019V95.7815H74.2574V89.7371C74.2576 89.7042 74.3198 86.4239 76.8337 83.1293C79.6862 79.392 79.412 76.1166 78.68 74.027C78.3788 73.1676 77.9561 72.3824 77.4614 71.6751H81.6031C82.2187 72.1678 83.3487 73.2629 83.6535 74.862C83.9696 76.5224 83.3177 78.4162 81.7159 80.4914ZM85.0411 62.6735V64.1184C85.0411 65.9591 83.5436 67.4566 81.7029 67.4566H65.3317V57.6479H81.7029C83.5436 57.6479 85.0411 59.1455 85.0411 60.9861V62.6735Z" fill="#DE4C90"/>
<path id="Vector_36" d="M58.0338 16.9351C57.7724 16.5479 57.494 16.1724 57.1997 15.8097L57.1994 15.8094C55.5826 14.5236 53.7987 13.8394 51.9688 13.8394C51.2455 13.8394 50.5292 13.9479 49.8275 14.156H49.8272C49.8849 14.1543 49.942 14.1493 50.0002 14.1493C51.1653 14.1493 52.1094 15.0934 52.1094 16.2585C52.1094 17.4236 51.1653 18.3677 50.0002 18.3677C47.3754 18.3677 44.44 23.4363 44.44 30.2202C44.44 30.7796 44.2178 31.316 43.8222 31.7116C43.4266 32.1072 42.8901 32.3294 42.3307 32.3294C41.3411 32.3294 40.5134 31.6474 40.2859 30.7286C40.26 31.2149 40.2464 31.7018 40.2451 32.1888C40.2451 37.2366 41.5554 41.9548 43.9346 45.4735C44.196 45.8607 44.4744 46.2362 44.7687 46.599C46.3858 47.885 48.1699 48.5693 50.0002 48.5693C52.9725 48.5693 55.8256 46.7705 58.0335 43.5049C60.4127 39.9859 61.723 35.2679 61.723 30.2202C61.7232 25.1718 60.413 20.4539 58.0338 16.9351Z" fill="#FFE09C"/>
<path id="Vector_37" d="M49.0634 14.2282C49.3151 14.1905 49.5696 14.1632 49.8272 14.1559H49.8275C50.5222 13.9475 51.2434 13.8408 51.9688 13.8392C53.7987 13.8392 55.5826 14.5234 57.1993 15.8092C55.1292 13.259 52.6111 11.8706 50.0001 11.8706C47.0275 11.8706 44.1742 13.6694 41.9662 16.935C39.587 20.454 38.2768 25.1717 38.2768 30.2197C38.2768 35.2675 39.587 39.9857 41.9662 43.5045C42.815 44.7596 43.7597 45.7956 44.769 46.5986C44.4746 46.2358 44.1963 45.8603 43.9349 45.4731C41.5557 41.954 40.2454 37.2361 40.2454 32.1883C40.2454 31.6979 40.2617 31.2113 40.2862 30.7282C40.2441 30.562 40.2225 30.3912 40.2218 30.2197C40.2218 21.7291 44.0361 14.981 49.0634 14.2282Z" fill="white"/>
<path id="Vector_38" d="M50.0004 14.1493C49.9422 14.1493 49.8854 14.1547 49.8278 14.1561C49.5702 14.1631 49.3156 14.1907 49.0637 14.2283C44.0364 14.9812 40.2221 21.7296 40.2221 30.2199C40.2221 30.3954 40.246 30.5653 40.2865 30.7284C40.5143 31.6472 41.3419 32.3291 42.3313 32.3291C42.8907 32.3291 43.4272 32.1069 43.8227 31.7114C44.2183 31.3158 44.4405 30.7793 44.4405 30.2199C44.4405 23.4364 47.376 18.3675 50.0007 18.3675C50.2797 18.3707 50.5566 18.3185 50.8153 18.2139C51.074 18.1094 51.3094 17.9545 51.5078 17.7583C51.7063 17.5621 51.8638 17.3285 51.9713 17.0711C52.0788 16.8136 52.1342 16.5373 52.1342 16.2583C52.1341 15.9792 52.0788 15.703 51.9712 15.4455C51.8637 15.188 51.7061 14.9544 51.5076 14.7583C51.3092 14.5621 51.0738 14.4073 50.8151 14.3028C50.5563 14.1982 50.2795 14.1461 50.0004 14.1493Z" fill="#DE4C90"/>
</g>
</g>
<defs>
<clipPath id="clip0_51_27">
<rect width="100" height="100" fill="white"/>
</clipPath>
</defs>
</svg>
